<svg width="295" height="104" viewBox="0 0 295 104" fill="none" xmlns="http://www.w3.org/2000/svg">
<g filter="url(#filter0_d_14_106)">
<rect x="20" width="255" height="64" rx="32" fill="#FAF4F4"/>
<path d="M110.42 25.06V26.54H104.36V31.24H109.28V32.72H104.36V39H102.54V25.06H110.42ZM117.398 39.18C116.371 39.18 115.438 38.9467 114.598 38.48C113.771 38.0133 113.118 37.3533 112.638 36.5C112.171 35.6333 111.938 34.6333 111.938 33.5C111.938 32.38 112.178 31.3933 112.658 30.54C113.151 29.6733 113.818 29.0133 114.658 28.56C115.498 28.0933 116.438 27.86 117.478 27.86C118.518 27.86 119.458 28.0933 120.298 28.56C121.138 29.0133 121.798 29.6667 122.278 30.52C122.771 31.3733 123.018 32.3667 123.018 33.5C123.018 34.6333 122.765 35.6333 122.258 36.5C121.765 37.3533 121.091 38.0133 120.238 38.48C119.385 38.9467 118.438 39.18 117.398 39.18ZM117.398 37.58C118.051 37.58 118.665 37.4267 119.238 37.12C119.811 36.8133 120.271 36.3533 120.618 35.74C120.978 35.1267 121.158 34.38 121.158 33.5C121.158 32.62 120.985 31.8733 120.638 31.26C120.291 30.6467 119.838 30.1933 119.278 29.9C118.718 29.5933 118.111 29.44 117.458 29.44C116.791 29.44 116.178 29.5933 115.618 29.9C115.071 30.1933 114.631 30.6467 114.298 31.26C113.965 31.8733 113.798 32.62 113.798 33.5C113.798 34.3933 113.958 35.1467 114.278 35.76C114.611 36.3733 115.051 36.8333 115.598 37.14C116.145 37.4333 116.745 37.58 117.398 37.58ZM127.231 24.2V39H125.411V24.2H127.231ZM132.153 24.2V39H130.333V24.2H132.153ZM140.035 39.18C139.008 39.18 138.075 38.9467 137.235 38.48C136.408 38.0133 135.755 37.3533 135.275 36.5C134.808 35.6333 134.575 34.6333 134.575 33.5C134.575 32.38 134.815 31.3933 135.295 30.54C135.788 29.6733 136.455 29.0133 137.295 28.56C138.135 28.0933 139.075 27.86 140.115 27.86C141.155 27.86 142.095 28.0933 142.935 28.56C143.775 29.0133 144.435 29.6667 144.915 30.52C145.408 31.3733 145.655 32.3667 145.655 33.5C145.655 34.6333 145.402 35.6333 144.895 36.5C144.402 37.3533 143.728 38.0133 142.875 38.48C142.022 38.9467 141.075 39.18 140.035 39.18ZM140.035 37.58C140.688 37.58 141.302 37.4267 141.875 37.12C142.448 36.8133 142.908 36.3533 143.255 35.74C143.615 35.1267 143.795 34.38 143.795 33.5C143.795 32.62 143.622 31.8733 143.275 31.26C142.928 30.6467 142.475 30.1933 141.915 29.9C141.355 29.5933 140.748 29.44 140.095 29.44C139.428 29.44 138.815 29.5933 138.255 29.9C137.708 30.1933 137.268 30.6467 136.935 31.26C136.602 31.8733 136.435 32.62 136.435 33.5C136.435 34.3933 136.595 35.1467 136.915 35.76C137.248 36.3733 137.688 36.8333 138.235 37.14C138.782 37.4333 139.382 37.58 140.035 37.58ZM162.648 28.04L159.228 39H157.348L154.708 30.3L152.068 39H150.188L146.748 28.04H148.608L151.128 37.24L153.848 28.04H155.708L158.368 37.26L160.848 28.04H162.648ZM171.566 25.06V33.88C171.566 35.12 171.866 36.04 172.466 36.64C173.079 37.24 173.926 37.54 175.006 37.54C176.073 37.54 176.906 37.24 177.506 36.64C178.119 36.04 178.426 35.12 178.426 33.88V25.06H180.246V33.86C180.246 35.02 180.013 36 179.546 36.8C179.079 37.5867 178.446 38.1733 177.646 38.56C176.859 38.9467 175.973 39.14 174.986 39.14C173.999 39.14 173.106 38.9467 172.306 38.56C171.519 38.1733 170.893 37.5867 170.426 36.8C169.973 36 169.746 35.02 169.746 33.86V25.06H171.566ZM187.162 39.18C186.322 39.18 185.569 39.04 184.902 38.76C184.236 38.4667 183.709 38.0667 183.322 37.56C182.936 37.04 182.722 36.4467 182.682 35.78H184.562C184.616 36.3267 184.869 36.7733 185.322 37.12C185.789 37.4667 186.396 37.64 187.142 37.64C187.836 37.64 188.382 37.4867 188.782 37.18C189.182 36.8733 189.382 36.4867 189.382 36.02C189.382 35.54 189.169 35.1867 188.742 34.96C188.316 34.72 187.656 34.4867 186.762 34.26C185.949 34.0467 185.282 33.8333 184.762 33.62C184.256 33.3933 183.816 33.0667 183.442 32.64C183.082 32.2 182.902 31.6267 182.902 30.92C182.902 30.36 183.069 29.8467 183.402 29.38C183.736 28.9133 184.209 28.5467 184.822 28.28C185.436 28 186.136 27.86 186.922 27.86C188.136 27.86 189.116 28.1667 189.862 28.78C190.609 29.3933 191.009 30.2333 191.062 31.3H189.242C189.202 30.7267 188.969 30.2667 188.542 29.92C188.129 29.5733 187.569 29.4 186.862 29.4C186.209 29.4 185.689 29.54 185.302 29.82C184.916 30.1 184.722 30.4667 184.722 30.92C184.722 31.28 184.836 31.58 185.062 31.82C185.302 32.0467 185.596 32.2333 185.942 32.38C186.302 32.5133 186.796 32.6667 187.422 32.84C188.209 33.0533 188.849 33.2667 189.342 33.48C189.836 33.68 190.256 33.9867 190.602 34.4C190.962 34.8133 191.149 35.3533 191.162 36.02C191.162 36.62 190.996 37.16 190.662 37.64C190.329 38.12 189.856 38.5 189.242 38.78C188.642 39.0467 187.949 39.18 187.162 39.18Z" fill="black"/>
</g>
<defs>
<filter id="filter0_d_14_106" x="0" y="0" width="295" height="104" filterUnits="userSpaceOnUse" color-interpolation-filters="sRGB">
<feFlood flood-opacity="0" result="BackgroundImageFix"/>
<feColorMatrix in="SourceAlpha" type="matrix" values="0 0 0 0 0 0 0 0 0 0 0 0 0 0 0 0 0 0 127 0" result="hardAlpha"/>
<feOffset dy="20"/>
<feGaussianBlur stdDeviation="10"/>
<feComposite in2="hardAlpha" operator="out"/>
<feColorMatrix type="matrix" values="0 0 0 0 0 0 0 0 0 0 0 0 0 0 0 0 0 0 0.1 0"/>
<feBlend mode="normal" in2="BackgroundImageFix" result="effect1_dropShadow_14_106"/>
<feBlend mode="normal" in="SourceGraphic" in2="effect1_dropShadow_14_106" result="shape"/>
</filter>
</defs>
</svg>
