<svg width="479" height="91" viewBox="0 0 479 91" fill="none" xmlns="http://www.w3.org/2000/svg">
<path d="M167.112 40.252C164.784 40.252 162.636 39.712 160.668 38.632C158.724 37.528 157.176 36.004 156.024 34.06C154.896 32.092 154.332 29.884 154.332 27.436C154.332 24.988 154.896 22.792 156.024 20.848C157.176 18.904 158.724 17.392 160.668 16.312C162.636 15.208 164.784 14.656 167.112 14.656C169.464 14.656 171.612 15.208 173.556 16.312C175.524 17.392 177.072 18.904 178.2 20.848C179.328 22.792 179.892 24.988 179.892 27.436C179.892 29.884 179.328 32.092 178.2 34.06C177.072 36.004 175.524 37.528 173.556 38.632C171.612 39.712 169.464 40.252 167.112 40.252ZM167.112 36.688C168.768 36.688 170.244 36.316 171.54 35.572C172.836 34.804 173.844 33.724 174.564 32.332C175.308 30.916 175.68 29.284 175.68 27.436C175.68 25.588 175.308 23.968 174.564 22.576C173.844 21.184 172.836 20.116 171.54 19.372C170.244 18.628 168.768 18.256 167.112 18.256C165.456 18.256 163.98 18.628 162.684 19.372C161.388 20.116 160.368 21.184 159.624 22.576C158.904 23.968 158.544 25.588 158.544 27.436C158.544 29.284 158.904 30.916 159.624 32.332C160.368 33.724 161.388 34.804 162.684 35.572C163.98 36.316 165.456 36.688 167.112 36.688ZM201.894 20.164V40H197.79V37.66C197.142 38.476 196.29 39.124 195.234 39.604C194.202 40.06 193.098 40.288 191.922 40.288C190.362 40.288 188.958 39.964 187.71 39.316C186.486 38.668 185.514 37.708 184.794 36.436C184.098 35.164 183.75 33.628 183.75 31.828V20.164H187.818V31.216C187.818 32.992 188.262 34.36 189.15 35.32C190.038 36.256 191.25 36.724 192.786 36.724C194.322 36.724 195.534 36.256 196.422 35.32C197.334 34.36 197.79 32.992 197.79 31.216V20.164H201.894ZM211.413 23.044C212.013 22.036 212.805 21.256 213.789 20.704C214.797 20.128 215.985 19.84 217.353 19.84V24.088H216.309C214.701 24.088 213.477 24.496 212.637 25.312C211.821 26.128 211.413 27.544 211.413 29.56V40H207.309V20.164H211.413V23.044ZM243.869 27.148C245.213 27.388 246.353 28.096 247.289 29.272C248.225 30.448 248.693 31.78 248.693 33.268C248.693 34.54 248.357 35.692 247.685 36.724C247.037 37.732 246.089 38.536 244.841 39.136C243.593 39.712 242.141 40 240.485 40H230.477V14.98H240.017C241.721 14.98 243.185 15.268 244.409 15.844C245.633 16.42 246.557 17.2 247.181 18.184C247.805 19.144 248.117 20.224 248.117 21.424C248.117 22.864 247.733 24.064 246.965 25.024C246.197 25.984 245.165 26.692 243.869 27.148ZM234.581 25.492H239.657C241.001 25.492 242.045 25.192 242.789 24.592C243.557 23.968 243.941 23.08 243.941 21.928C243.941 20.8 243.557 19.924 242.789 19.3C242.045 18.652 241.001 18.328 239.657 18.328H234.581V25.492ZM240.125 36.652C241.517 36.652 242.609 36.316 243.401 35.644C244.193 34.972 244.589 34.036 244.589 32.836C244.589 31.612 244.169 30.64 243.329 29.92C242.489 29.2 241.373 28.84 239.981 28.84H234.581V36.652H240.125ZM257.257 13.36V40H253.153V13.36H257.257ZM271.249 40.324C269.377 40.324 267.685 39.904 266.173 39.064C264.661 38.2 263.473 37 262.609 35.464C261.745 33.904 261.313 32.104 261.313 30.064C261.313 28.048 261.757 26.26 262.645 24.7C263.533 23.14 264.745 21.94 266.281 21.1C267.817 20.26 269.533 19.84 271.429 19.84C273.325 19.84 275.041 20.26 276.577 21.1C278.113 21.94 279.325 23.14 280.213 24.7C281.101 26.26 281.545 28.048 281.545 30.064C281.545 32.08 281.089 33.868 280.177 35.428C279.265 36.988 278.017 38.2 276.433 39.064C274.873 39.904 273.145 40.324 271.249 40.324ZM271.249 36.76C272.305 36.76 273.289 36.508 274.201 36.004C275.137 35.5 275.893 34.744 276.469 33.736C277.045 32.728 277.333 31.504 277.333 30.064C277.333 28.624 277.057 27.412 276.505 26.428C275.953 25.42 275.221 24.664 274.309 24.16C273.397 23.656 272.413 23.404 271.357 23.404C270.301 23.404 269.317 23.656 268.405 24.16C267.517 24.664 266.809 25.42 266.281 26.428C265.753 27.412 265.489 28.624 265.489 30.064C265.489 32.2 266.029 33.856 267.109 35.032C268.213 36.184 269.593 36.76 271.249 36.76ZM293.594 19.84C295.13 19.84 296.486 20.152 297.662 20.776C298.862 21.376 299.798 22.132 300.47 23.044V20.164H304.61V40.324C304.61 42.148 304.226 43.768 303.458 45.184C302.69 46.624 301.574 47.752 300.11 48.568C298.67 49.384 296.942 49.792 294.926 49.792C292.238 49.792 290.006 49.156 288.23 47.884C286.454 46.636 285.446 44.932 285.206 42.772H289.274C289.586 43.804 290.246 44.632 291.254 45.256C292.286 45.904 293.51 46.228 294.926 46.228C296.582 46.228 297.914 45.724 298.922 44.716C299.954 43.708 300.47 42.244 300.47 40.324V37.012C299.774 37.948 298.826 38.74 297.626 39.388C296.45 40.012 295.106 40.324 293.594 40.324C291.866 40.324 290.282 39.892 288.842 39.028C287.426 38.14 286.298 36.916 285.458 35.356C284.642 33.772 284.234 31.984 284.234 29.992C284.234 28 284.642 26.236 285.458 24.7C286.298 23.164 287.426 21.976 288.842 21.136C290.282 20.272 291.866 19.84 293.594 19.84ZM300.47 30.064C300.47 28.696 300.182 27.508 299.606 26.5C299.054 25.492 298.322 24.724 297.41 24.196C296.498 23.668 295.514 23.404 294.458 23.404C293.402 23.404 292.418 23.668 291.506 24.196C290.594 24.7 289.85 25.456 289.274 26.464C288.722 27.448 288.446 28.624 288.446 29.992C288.446 31.36 288.722 32.56 289.274 33.592C289.85 34.624 290.594 35.416 291.506 35.968C292.442 36.496 293.426 36.76 294.458 36.76C295.514 36.76 296.498 36.496 297.41 35.968C298.322 35.44 299.054 34.672 299.606 33.664C300.182 32.632 300.47 31.432 300.47 30.064ZM317.201 40.324C315.641 40.324 314.237 40.048 312.989 39.496C311.765 38.92 310.793 38.152 310.073 37.192C309.353 36.208 308.969 35.116 308.921 33.916H313.169C313.241 34.756 313.637 35.464 314.357 36.04C315.101 36.592 316.025 36.868 317.129 36.868C318.281 36.868 319.169 36.652 319.793 36.22C320.441 35.764 320.765 35.188 320.765 34.492C320.765 33.748 320.405 33.196 319.685 32.836C318.989 32.476 317.873 32.08 316.337 31.648C314.849 31.24 313.637 30.844 312.701 30.46C311.765 30.076 310.949 29.488 310.253 28.696C309.581 27.904 309.245 26.86 309.245 25.564C309.245 24.508 309.557 23.548 310.181 22.684C310.805 21.796 311.693 21.1 312.845 20.596C314.021 20.092 315.365 19.84 316.877 19.84C319.133 19.84 320.945 20.416 322.313 21.568C323.705 22.696 324.449 24.244 324.545 26.212H320.441C320.369 25.324 320.009 24.616 319.361 24.088C318.713 23.56 317.837 23.296 316.733 23.296C315.653 23.296 314.825 23.5 314.249 23.908C313.673 24.316 313.385 24.856 313.385 25.528C313.385 26.056 313.577 26.5 313.961 26.86C314.345 27.22 314.813 27.508 315.365 27.724C315.917 27.916 316.733 28.168 317.813 28.48C319.253 28.864 320.429 29.26 321.341 29.668C322.277 30.052 323.081 30.628 323.753 31.396C324.425 32.164 324.773 33.184 324.797 34.456C324.797 35.584 324.485 36.592 323.861 37.48C323.237 38.368 322.349 39.064 321.197 39.568C320.069 40.072 318.737 40.324 317.201 40.324Z" fill="black"/>
<path d="M7.744 73.88V75.368H3.024V78.648H6.704V80.136H3.024V85H1.2V73.88H7.744ZM10.3624 75.016C10.0317 75.016 9.75438 74.904 9.53038 74.68C9.30638 74.456 9.19438 74.1787 9.19438 73.848C9.19438 73.5173 9.30638 73.24 9.53038 73.016C9.75438 72.792 10.0317 72.68 10.3624 72.68C10.6824 72.68 10.9544 72.792 11.1784 73.016C11.4024 73.24 11.5144 73.5173 11.5144 73.848C11.5144 74.1787 11.4024 74.456 11.1784 74.68C10.9544 74.904 10.6824 75.016 10.3624 75.016ZM11.2584 76.184V85H9.43438V76.184H11.2584ZM18.1011 76.04C18.7945 76.04 19.4131 76.184 19.9571 76.472C20.5118 76.76 20.9438 77.1867 21.2531 77.752C21.5625 78.3173 21.7171 79 21.7171 79.8V85H19.9091V80.072C19.9091 79.2827 19.7118 78.68 19.3171 78.264C18.9225 77.8373 18.3838 77.624 17.7011 77.624C17.0185 77.624 16.4745 77.8373 16.0691 78.264C15.6745 78.68 15.4771 79.2827 15.4771 80.072V85H13.6531V76.184H15.4771V77.192C15.7758 76.8293 16.1545 76.5467 16.6131 76.344C17.0825 76.1413 17.5785 76.04 18.1011 76.04ZM23.4358 80.552C23.4358 79.6667 23.6171 78.8827 23.9798 78.2C24.3531 77.5173 24.8544 76.9893 25.4838 76.616C26.1238 76.232 26.8331 76.04 27.6118 76.04C28.1878 76.04 28.7531 76.168 29.3078 76.424C29.8731 76.6693 30.3211 77 30.6518 77.416V73.16H32.4918V85H30.6518V83.672C30.3531 84.0987 29.9371 84.4507 29.4038 84.728C28.8811 85.0053 28.2784 85.144 27.5958 85.144C26.8278 85.144 26.1238 84.952 25.4838 84.568C24.8544 84.1733 24.3531 83.6293 23.9798 82.936C23.6171 82.232 23.4358 81.4373 23.4358 80.552ZM30.6518 80.584C30.6518 79.976 30.5238 79.448 30.2678 79C30.0224 78.552 29.6971 78.2107 29.2918 77.976C28.8864 77.7413 28.4491 77.624 27.9798 77.624C27.5104 77.624 27.0731 77.7413 26.6678 77.976C26.2624 78.2 25.9318 78.536 25.6758 78.984C25.4304 79.4213 25.3078 79.944 25.3078 80.552C25.3078 81.16 25.4304 81.6933 25.6758 82.152C25.9318 82.6107 26.2624 82.9627 26.6678 83.208C27.0838 83.4427 27.5211 83.56 27.9798 83.56C28.4491 83.56 28.8864 83.4427 29.2918 83.208C29.6971 82.9733 30.0224 82.632 30.2678 82.184C30.5238 81.7253 30.6518 81.192 30.6518 80.584ZM38.4358 80.552C38.4358 79.6667 38.6171 78.8827 38.9798 78.2C39.3531 77.5173 39.8544 76.9893 40.4838 76.616C41.1238 76.232 41.8278 76.04 42.5958 76.04C43.2891 76.04 43.8918 76.1787 44.4038 76.456C44.9264 76.7227 45.3424 77.0587 45.6518 77.464V76.184H47.4918V85H45.6518V83.688C45.3424 84.104 44.9211 84.4507 44.3878 84.728C43.8544 85.0053 43.2464 85.144 42.5638 85.144C41.8064 85.144 41.1131 84.952 40.4838 84.568C39.8544 84.1733 39.3531 83.6293 38.9798 82.936C38.6171 82.232 38.4358 81.4373 38.4358 80.552ZM45.6518 80.584C45.6518 79.976 45.5238 79.448 45.2678 79C45.0224 78.552 44.6971 78.2107 44.2918 77.976C43.8864 77.7413 43.4491 77.624 42.9798 77.624C42.5104 77.624 42.0731 77.7413 41.6678 77.976C41.2624 78.2 40.9318 78.536 40.6758 78.984C40.4304 79.4213 40.3078 79.944 40.3078 80.552C40.3078 81.16 40.4304 81.6933 40.6758 82.152C40.9318 82.6107 41.2624 82.9627 41.6678 83.208C42.0838 83.4427 42.5211 83.56 42.9798 83.56C43.4491 83.56 43.8864 83.4427 44.2918 83.208C44.6971 82.9733 45.0224 82.632 45.2678 82.184C45.5238 81.7253 45.6518 81.192 45.6518 80.584ZM55.8678 77.496C56.1771 77.0693 56.5984 76.7227 57.1318 76.456C57.6758 76.1787 58.2784 76.04 58.9398 76.04C59.7184 76.04 60.4224 76.2267 61.0518 76.6C61.6811 76.9733 62.1771 77.5067 62.5398 78.2C62.9024 78.8827 63.0838 79.6667 63.0838 80.552C63.0838 81.4373 62.9024 82.232 62.5398 82.936C62.1771 83.6293 61.6758 84.1733 61.0358 84.568C60.4064 84.952 59.7078 85.144 58.9398 85.144C58.2571 85.144 57.6491 85.0107 57.1158 84.744C56.5931 84.4773 56.1771 84.136 55.8678 83.72V85H54.0438V73.16H55.8678V77.496ZM61.2278 80.552C61.2278 79.944 61.0998 79.4213 60.8438 78.984C60.5984 78.536 60.2678 78.2 59.8518 77.976C59.4464 77.7413 59.0091 77.624 58.5398 77.624C58.0811 77.624 57.6438 77.7413 57.2278 77.976C56.8224 78.2107 56.4918 78.552 56.2358 79C55.9904 79.448 55.8678 79.976 55.8678 80.584C55.8678 81.192 55.9904 81.7253 56.2358 82.184C56.4918 82.632 56.8224 82.9733 57.2278 83.208C57.6438 83.4427 58.0811 83.56 58.5398 83.56C59.0091 83.56 59.4464 83.4427 59.8518 83.208C60.2678 82.9627 60.5984 82.6107 60.8438 82.152C61.0998 81.6933 61.2278 81.16 61.2278 80.552ZM66.7115 77.464C66.9782 77.016 67.3302 76.6693 67.7675 76.424C68.2155 76.168 68.7435 76.04 69.3515 76.04V77.928H68.8875C68.1728 77.928 67.6288 78.1093 67.2555 78.472C66.8928 78.8347 66.7115 79.464 66.7115 80.36V85H64.8875V76.184H66.7115V77.464ZM71.9561 75.016C71.6255 75.016 71.3481 74.904 71.1241 74.68C70.9001 74.456 70.7881 74.1787 70.7881 73.848C70.7881 73.5173 70.9001 73.24 71.1241 73.016C71.3481 72.792 71.6255 72.68 71.9561 72.68C72.2761 72.68 72.5481 72.792 72.7721 73.016C72.9961 73.24 73.1081 73.5173 73.1081 73.848C73.1081 74.1787 72.9961 74.456 72.7721 74.68C72.5481 74.904 72.2761 75.016 71.9561 75.016ZM72.8521 76.184V85H71.0281V76.184H72.8521ZM78.7989 76.04C79.4815 76.04 80.0842 76.1787 80.6069 76.456C81.1402 76.7227 81.5562 77.0587 81.8549 77.464V76.184H83.6949V85.144C83.6949 85.9547 83.5242 86.6747 83.1829 87.304C82.8415 87.944 82.3455 88.4453 81.6949 88.808C81.0549 89.1707 80.2869 89.352 79.3909 89.352C78.1962 89.352 77.2042 89.0693 76.4149 88.504C75.6255 87.9493 75.1775 87.192 75.0709 86.232H76.8789C77.0175 86.6907 77.3109 87.0587 77.7589 87.336C78.2175 87.624 78.7615 87.768 79.3909 87.768C80.1269 87.768 80.7189 87.544 81.1669 87.096C81.6255 86.648 81.8549 85.9973 81.8549 85.144V83.672C81.5455 84.088 81.1242 84.44 80.5909 84.728C80.0682 85.0053 79.4709 85.144 78.7989 85.144C78.0309 85.144 77.3269 84.952 76.6869 84.568C76.0575 84.1733 75.5562 83.6293 75.1829 82.936C74.8202 82.232 74.6389 81.4373 74.6389 80.552C74.6389 79.6667 74.8202 78.8827 75.1829 78.2C75.5562 77.5173 76.0575 76.9893 76.6869 76.616C77.3269 76.232 78.0309 76.04 78.7989 76.04ZM81.8549 80.584C81.8549 79.976 81.7269 79.448 81.4709 79C81.2255 78.552 80.9002 78.2107 80.4949 77.976C80.0895 77.7413 79.6522 77.624 79.1829 77.624C78.7135 77.624 78.2762 77.7413 77.8709 77.976C77.4655 78.2 77.1349 78.536 76.8789 78.984C76.6335 79.4213 76.5109 79.944 76.5109 80.552C76.5109 81.16 76.6335 81.6933 76.8789 82.152C77.1349 82.6107 77.4655 82.9627 77.8709 83.208C78.2869 83.4427 78.7242 83.56 79.1829 83.56C79.6522 83.56 80.0895 83.4427 80.4949 83.208C80.9002 82.9733 81.2255 82.632 81.4709 82.184C81.7269 81.7253 81.8549 81.192 81.8549 80.584ZM90.6506 76.04C91.3226 76.04 91.92 76.184 92.4426 76.472C92.976 76.76 93.392 77.1867 93.6906 77.752C94 78.3173 94.1546 79 94.1546 79.8V85H92.3466V80.072C92.3466 79.2827 92.1493 78.68 91.7546 78.264C91.36 77.8373 90.8213 77.624 90.1386 77.624C89.456 77.624 88.912 77.8373 88.5066 78.264C88.112 78.68 87.9146 79.2827 87.9146 80.072V85H86.0906V73.16H87.9146V77.208C88.224 76.8347 88.6133 76.5467 89.0826 76.344C89.5626 76.1413 90.0853 76.04 90.6506 76.04ZM98.6093 77.672V82.552C98.6093 82.8827 98.6839 83.1227 98.8333 83.272C98.9933 83.4107 99.2599 83.48 99.6333 83.48H100.753V85H99.3133C98.4919 85 97.8626 84.808 97.4253 84.424C96.9879 84.04 96.7693 83.416 96.7693 82.552V77.672H95.7293V76.184H96.7693V73.992H98.6093V76.184H100.753V77.672H98.6093ZM107.519 75.016C107.188 75.016 106.911 74.904 106.687 74.68C106.463 74.456 106.351 74.1787 106.351 73.848C106.351 73.5173 106.463 73.24 106.687 73.016C106.911 72.792 107.188 72.68 107.519 72.68C107.839 72.68 108.111 72.792 108.335 73.016C108.559 73.24 108.671 73.5173 108.671 73.848C108.671 74.1787 108.559 74.456 108.335 74.68C108.111 74.904 107.839 75.016 107.519 75.016ZM108.415 76.184V85H106.591V76.184H108.415ZM110.201 80.552C110.201 79.6667 110.383 78.8827 110.745 78.2C111.119 77.5173 111.62 76.9893 112.249 76.616C112.889 76.232 113.599 76.04 114.377 76.04C114.953 76.04 115.519 76.168 116.073 76.424C116.639 76.6693 117.087 77 117.417 77.416V73.16H119.257V85H117.417V83.672C117.119 84.0987 116.703 84.4507 116.169 84.728C115.647 85.0053 115.044 85.144 114.361 85.144C113.593 85.144 112.889 84.952 112.249 84.568C111.62 84.1733 111.119 83.6293 110.745 82.936C110.383 82.232 110.201 81.4373 110.201 80.552ZM117.417 80.584C117.417 79.976 117.289 79.448 117.033 79C116.788 78.552 116.463 78.2107 116.057 77.976C115.652 77.7413 115.215 77.624 114.745 77.624C114.276 77.624 113.839 77.7413 113.433 77.976C113.028 78.2 112.697 78.536 112.441 78.984C112.196 79.4213 112.073 79.944 112.073 80.552C112.073 81.16 112.196 81.6933 112.441 82.152C112.697 82.6107 113.028 82.9627 113.433 83.208C113.849 83.4427 114.287 83.56 114.745 83.56C115.215 83.56 115.652 83.4427 116.057 83.208C116.463 82.9733 116.788 82.632 117.033 82.184C117.289 81.7253 117.417 81.192 117.417 80.584ZM129.733 80.376C129.733 80.7067 129.712 81.0053 129.669 81.272H122.933C122.986 81.976 123.248 82.5413 123.717 82.968C124.186 83.3947 124.762 83.608 125.445 83.608C126.426 83.608 127.12 83.1973 127.525 82.376H129.493C129.226 83.1867 128.741 83.8533 128.037 84.376C127.344 84.888 126.48 85.144 125.445 85.144C124.602 85.144 123.845 84.9573 123.173 84.584C122.512 84.2 121.989 83.6667 121.605 82.984C121.232 82.2907 121.045 81.4907 121.045 80.584C121.045 79.6773 121.226 78.8827 121.589 78.2C121.962 77.5067 122.48 76.9733 123.141 76.6C123.813 76.2267 124.581 76.04 125.445 76.04C126.277 76.04 127.018 76.2213 127.669 76.584C128.32 76.9467 128.826 77.4587 129.189 78.12C129.552 78.7707 129.733 79.5227 129.733 80.376ZM127.829 79.8C127.818 79.128 127.578 78.5893 127.109 78.184C126.64 77.7787 126.058 77.576 125.365 77.576C124.736 77.576 124.197 77.7787 123.749 78.184C123.301 78.5787 123.034 79.1173 122.949 79.8H127.829ZM130.92 80.552C130.92 79.6667 131.101 78.8827 131.464 78.2C131.837 77.5173 132.339 76.9893 132.968 76.616C133.608 76.232 134.312 76.04 135.08 76.04C135.773 76.04 136.376 76.1787 136.888 76.456C137.411 76.7227 137.827 77.0587 138.136 77.464V76.184H139.976V85H138.136V83.688C137.827 84.104 137.405 84.4507 136.872 84.728C136.339 85.0053 135.731 85.144 135.048 85.144C134.291 85.144 133.597 84.952 132.968 84.568C132.339 84.1733 131.837 83.6293 131.464 82.936C131.101 82.232 130.92 81.4373 130.92 80.552ZM138.136 80.584C138.136 79.976 138.008 79.448 137.752 79C137.507 78.552 137.181 78.2107 136.776 77.976C136.371 77.7413 135.933 77.624 135.464 77.624C134.995 77.624 134.557 77.7413 134.152 77.976C133.747 78.2 133.416 78.536 133.16 78.984C132.915 79.4213 132.792 79.944 132.792 80.552C132.792 81.16 132.915 81.6933 133.16 82.152C133.416 82.6107 133.747 82.9627 134.152 83.208C134.568 83.4427 135.005 83.56 135.464 83.56C135.933 83.56 136.371 83.4427 136.776 83.208C137.181 82.9733 137.507 82.632 137.752 82.184C138.008 81.7253 138.136 81.192 138.136 80.584ZM144.196 73.16V85H142.372V73.16H144.196ZM152.875 77.672V82.552C152.875 82.8827 152.95 83.1227 153.099 83.272C153.259 83.4107 153.526 83.48 153.899 83.48H155.019V85H153.579C152.758 85 152.128 84.808 151.691 84.424C151.254 84.04 151.035 83.416 151.035 82.552V77.672H149.995V76.184H151.035V73.992H152.875V76.184H155.019V77.672H152.875ZM160.524 85.144C159.692 85.144 158.94 84.9573 158.268 84.584C157.596 84.2 157.068 83.6667 156.684 82.984C156.3 82.2907 156.108 81.4907 156.108 80.584C156.108 79.688 156.305 78.8933 156.7 78.2C157.095 77.5067 157.633 76.9733 158.316 76.6C158.999 76.2267 159.761 76.04 160.604 76.04C161.447 76.04 162.209 76.2267 162.892 76.6C163.575 76.9733 164.113 77.5067 164.508 78.2C164.903 78.8933 165.1 79.688 165.1 80.584C165.1 81.48 164.897 82.2747 164.492 82.968C164.087 83.6613 163.532 84.2 162.828 84.584C162.135 84.9573 161.367 85.144 160.524 85.144ZM160.524 83.56C160.993 83.56 161.431 83.448 161.836 83.224C162.252 83 162.588 82.664 162.844 82.216C163.1 81.768 163.228 81.224 163.228 80.584C163.228 79.944 163.105 79.4053 162.86 78.968C162.615 78.52 162.289 78.184 161.884 77.96C161.479 77.736 161.041 77.624 160.572 77.624C160.103 77.624 159.665 77.736 159.26 77.96C158.865 78.184 158.551 78.52 158.316 78.968C158.081 79.4053 157.964 79.944 157.964 80.584C157.964 81.5333 158.204 82.2693 158.684 82.792C159.175 83.304 159.788 83.56 160.524 83.56ZM174.259 85.144C173.566 85.144 172.942 85.0213 172.387 84.776C171.843 84.52 171.411 84.1787 171.091 83.752C170.771 83.3147 170.601 82.8293 170.579 82.296H172.467C172.499 82.6693 172.675 82.984 172.995 83.24C173.326 83.4853 173.737 83.608 174.227 83.608C174.739 83.608 175.134 83.512 175.411 83.32C175.699 83.1173 175.843 82.8613 175.843 82.552C175.843 82.2213 175.683 81.976 175.363 81.816C175.054 81.656 174.558 81.48 173.875 81.288C173.214 81.1067 172.675 80.9307 172.259 80.76C171.843 80.5893 171.481 80.328 171.171 79.976C170.873 79.624 170.723 79.16 170.723 78.584C170.723 78.1147 170.862 77.688 171.139 77.304C171.417 76.9093 171.811 76.6 172.323 76.376C172.846 76.152 173.443 76.04 174.115 76.04C175.118 76.04 175.923 76.296 176.531 76.808C177.15 77.3093 177.481 77.9973 177.523 78.872H175.699C175.667 78.4773 175.507 78.1627 175.219 77.928C174.931 77.6933 174.542 77.576 174.051 77.576C173.571 77.576 173.203 77.6667 172.947 77.848C172.691 78.0293 172.563 78.2693 172.563 78.568C172.563 78.8027 172.649 79 172.819 79.16C172.99 79.32 173.198 79.448 173.443 79.544C173.689 79.6293 174.051 79.7413 174.531 79.88C175.171 80.0507 175.694 80.2267 176.099 80.408C176.515 80.5787 176.873 80.8347 177.171 81.176C177.47 81.5173 177.625 81.9707 177.635 82.536C177.635 83.0373 177.497 83.4853 177.219 83.88C176.942 84.2747 176.547 84.584 176.035 84.808C175.534 85.032 174.942 85.144 174.259 85.144ZM187.59 76.184V85H185.766V83.96C185.478 84.3227 185.1 84.6107 184.63 84.824C184.172 85.0267 183.681 85.128 183.158 85.128C182.465 85.128 181.841 84.984 181.286 84.696C180.742 84.408 180.31 83.9813 179.99 83.416C179.681 82.8507 179.526 82.168 179.526 81.368V76.184H181.334V81.096C181.334 81.8853 181.532 82.4933 181.926 82.92C182.321 83.336 182.86 83.544 183.542 83.544C184.225 83.544 184.764 83.336 185.158 82.92C185.564 82.4933 185.766 81.8853 185.766 81.096V76.184H187.59ZM190.925 75.016C190.594 75.016 190.317 74.904 190.093 74.68C189.869 74.456 189.757 74.1787 189.757 73.848C189.757 73.5173 189.869 73.24 190.093 73.016C190.317 72.792 190.594 72.68 190.925 72.68C191.245 72.68 191.517 72.792 191.741 73.016C191.965 73.24 192.077 73.5173 192.077 73.848C192.077 74.1787 191.965 74.456 191.741 74.68C191.517 74.904 191.245 75.016 190.925 75.016ZM191.821 76.184V85H189.997V76.184H191.821ZM196.344 77.672V82.552C196.344 82.8827 196.418 83.1227 196.568 83.272C196.728 83.4107 196.994 83.48 197.368 83.48H198.488V85H197.048C196.226 85 195.597 84.808 195.16 84.424C194.722 84.04 194.504 83.416 194.504 82.552V77.672H193.464V76.184H194.504V73.992H196.344V76.184H198.488V77.672H196.344ZM212.261 76.184L206.853 89.144H204.965L206.757 84.856L203.285 76.184H205.317L207.797 82.904L210.373 76.184H212.261ZM217.462 85.144C216.63 85.144 215.878 84.9573 215.206 84.584C214.534 84.2 214.006 83.6667 213.622 82.984C213.238 82.2907 213.046 81.4907 213.046 80.584C213.046 79.688 213.243 78.8933 213.638 78.2C214.032 77.5067 214.571 76.9733 215.254 76.6C215.936 76.2267 216.699 76.04 217.542 76.04C218.384 76.04 219.147 76.2267 219.83 76.6C220.512 76.9733 221.051 77.5067 221.446 78.2C221.84 78.8933 222.038 79.688 222.038 80.584C222.038 81.48 221.835 82.2747 221.43 82.968C221.024 83.6613 220.47 84.2 219.766 84.584C219.072 84.9573 218.304 85.144 217.462 85.144ZM217.462 83.56C217.931 83.56 218.368 83.448 218.774 83.224C219.19 83 219.526 82.664 219.782 82.216C220.038 81.768 220.166 81.224 220.166 80.584C220.166 79.944 220.043 79.4053 219.798 78.968C219.552 78.52 219.227 78.184 218.822 77.96C218.416 77.736 217.979 77.624 217.51 77.624C217.04 77.624 216.603 77.736 216.198 77.96C215.803 78.184 215.488 78.52 215.254 78.968C215.019 79.4053 214.902 79.944 214.902 80.584C214.902 81.5333 215.142 82.2693 215.622 82.792C216.112 83.304 216.726 83.56 217.462 83.56ZM231.825 76.184V85H230.001V83.96C229.713 84.3227 229.334 84.6107 228.865 84.824C228.406 85.0267 227.915 85.128 227.393 85.128C226.699 85.128 226.075 84.984 225.521 84.696C224.977 84.408 224.545 83.9813 224.225 83.416C223.915 82.8507 223.761 82.168 223.761 81.368V76.184H225.569V81.096C225.569 81.8853 225.766 82.4933 226.161 82.92C226.555 83.336 227.094 83.544 227.777 83.544C228.459 83.544 228.998 83.336 229.393 82.92C229.798 82.4933 230.001 81.8853 230.001 81.096V76.184H231.825ZM236.055 77.464C236.322 77.016 236.674 76.6693 237.111 76.424C237.559 76.168 238.087 76.04 238.695 76.04V77.928H238.231C237.517 77.928 236.973 78.1093 236.599 78.472C236.237 78.8347 236.055 79.464 236.055 80.36V85H234.231V76.184H236.055V77.464ZM246.656 77.672V82.552C246.656 82.8827 246.731 83.1227 246.88 83.272C247.04 83.4107 247.307 83.48 247.68 83.48H248.8V85H247.36C246.539 85 245.909 84.808 245.472 84.424C245.035 84.04 244.816 83.416 244.816 82.552V77.672H243.776V76.184H244.816V73.992H246.656V76.184H248.8V77.672H246.656ZM249.873 80.552C249.873 79.6667 250.055 78.8827 250.417 78.2C250.791 77.5173 251.292 76.9893 251.921 76.616C252.561 76.232 253.265 76.04 254.033 76.04C254.727 76.04 255.329 76.1787 255.841 76.456C256.364 76.7227 256.78 77.0587 257.089 77.464V76.184H258.929V85H257.089V83.688C256.78 84.104 256.359 84.4507 255.825 84.728C255.292 85.0053 254.684 85.144 254.001 85.144C253.244 85.144 252.551 84.952 251.921 84.568C251.292 84.1733 250.791 83.6293 250.417 82.936C250.055 82.232 249.873 81.4373 249.873 80.552ZM257.089 80.584C257.089 79.976 256.961 79.448 256.705 79C256.46 78.552 256.135 78.2107 255.729 77.976C255.324 77.7413 254.887 77.624 254.417 77.624C253.948 77.624 253.511 77.7413 253.105 77.976C252.7 78.2 252.369 78.536 252.113 78.984C251.868 79.4213 251.745 79.944 251.745 80.552C251.745 81.16 251.868 81.6933 252.113 82.152C252.369 82.6107 252.7 82.9627 253.105 83.208C253.521 83.4427 253.959 83.56 254.417 83.56C254.887 83.56 255.324 83.4427 255.729 83.208C256.135 82.9733 256.46 82.632 256.705 82.184C256.961 81.7253 257.089 81.192 257.089 80.584ZM264.525 85.144C263.832 85.144 263.208 85.0213 262.653 84.776C262.109 84.52 261.677 84.1787 261.357 83.752C261.037 83.3147 260.866 82.8293 260.845 82.296H262.733C262.765 82.6693 262.941 82.984 263.261 83.24C263.592 83.4853 264.002 83.608 264.493 83.608C265.005 83.608 265.4 83.512 265.677 83.32C265.965 83.1173 266.109 82.8613 266.109 82.552C266.109 82.2213 265.949 81.976 265.629 81.816C265.32 81.656 264.824 81.48 264.141 81.288C263.48 81.1067 262.941 80.9307 262.525 80.76C262.109 80.5893 261.746 80.328 261.437 79.976C261.138 79.624 260.989 79.16 260.989 78.584C260.989 78.1147 261.128 77.688 261.405 77.304C261.682 76.9093 262.077 76.6 262.589 76.376C263.112 76.152 263.709 76.04 264.381 76.04C265.384 76.04 266.189 76.296 266.797 76.808C267.416 77.3093 267.746 77.9973 267.789 78.872H265.965C265.933 78.4773 265.773 78.1627 265.485 77.928C265.197 77.6933 264.808 77.576 264.317 77.576C263.837 77.576 263.469 77.6667 263.213 77.848C262.957 78.0293 262.829 78.2693 262.829 78.568C262.829 78.8027 262.914 79 263.085 79.16C263.256 79.32 263.464 79.448 263.709 79.544C263.954 79.6293 264.317 79.7413 264.797 79.88C265.437 80.0507 265.96 80.2267 266.365 80.408C266.781 80.5787 267.138 80.8347 267.437 81.176C267.736 81.5173 267.89 81.9707 267.901 82.536C267.901 83.0373 267.762 83.4853 267.485 83.88C267.208 84.2747 266.813 84.584 266.301 84.808C265.8 85.032 265.208 85.144 264.525 85.144ZM272 77.672V82.552C272 82.8827 272.075 83.1227 272.224 83.272C272.384 83.4107 272.651 83.48 273.024 83.48H274.144V85H272.704C271.883 85 271.253 84.808 270.816 84.424C270.379 84.04 270.16 83.416 270.16 82.552V77.672H269.12V76.184H270.16V73.992H272V76.184H274.144V77.672H272ZM283.905 80.376C283.905 80.7067 283.884 81.0053 283.841 81.272H277.105C277.158 81.976 277.42 82.5413 277.889 82.968C278.358 83.3947 278.934 83.608 279.617 83.608C280.598 83.608 281.292 83.1973 281.697 82.376H283.665C283.398 83.1867 282.913 83.8533 282.209 84.376C281.516 84.888 280.652 85.144 279.617 85.144C278.774 85.144 278.017 84.9573 277.345 84.584C276.684 84.2 276.161 83.6667 275.777 82.984C275.404 82.2907 275.217 81.4907 275.217 80.584C275.217 79.6773 275.398 78.8827 275.761 78.2C276.134 77.5067 276.652 76.9733 277.313 76.6C277.985 76.2267 278.753 76.04 279.617 76.04C280.449 76.04 281.19 76.2213 281.841 76.584C282.492 76.9467 282.998 77.4587 283.361 78.12C283.724 78.7707 283.905 79.5227 283.905 80.376ZM282.001 79.8C281.99 79.128 281.75 78.5893 281.281 78.184C280.812 77.7787 280.23 77.576 279.537 77.576C278.908 77.576 278.369 77.7787 277.921 78.184C277.473 78.5787 277.206 79.1173 277.121 79.8H282.001ZM301.696 76.184L298.96 85H297.04L295.264 78.488L293.488 85H291.568L288.816 76.184H290.672L292.512 83.272L294.384 76.184H296.288L298.08 83.24L299.904 76.184H301.696ZM303.987 75.016C303.657 75.016 303.379 74.904 303.155 74.68C302.931 74.456 302.819 74.1787 302.819 73.848C302.819 73.5173 302.931 73.24 303.155 73.016C303.379 72.792 303.657 72.68 303.987 72.68C304.307 72.68 304.579 72.792 304.803 73.016C305.027 73.24 305.139 73.5173 305.139 73.848C305.139 74.1787 305.027 74.456 304.803 74.68C304.579 74.904 304.307 75.016 303.987 75.016ZM304.883 76.184V85H303.059V76.184H304.883ZM309.406 77.672V82.552C309.406 82.8827 309.481 83.1227 309.63 83.272C309.79 83.4107 310.057 83.48 310.43 83.48H311.55V85H310.11C309.289 85 308.659 84.808 308.222 84.424C307.785 84.04 307.566 83.416 307.566 82.552V77.672H306.526V76.184H307.566V73.992H309.406V76.184H311.55V77.672H309.406ZM317.791 76.04C318.463 76.04 319.061 76.184 319.583 76.472C320.117 76.76 320.533 77.1867 320.831 77.752C321.141 78.3173 321.295 79 321.295 79.8V85H319.487V80.072C319.487 79.2827 319.29 78.68 318.895 78.264C318.501 77.8373 317.962 77.624 317.279 77.624C316.597 77.624 316.053 77.8373 315.647 78.264C315.253 78.68 315.055 79.2827 315.055 80.072V85H313.231V73.16H315.055V77.208C315.365 76.8347 315.754 76.5467 316.223 76.344C316.703 76.1413 317.226 76.04 317.791 76.04ZM331.602 85.144C330.77 85.144 330.018 84.9573 329.346 84.584C328.674 84.2 328.146 83.6667 327.762 82.984C327.378 82.2907 327.186 81.4907 327.186 80.584C327.186 79.688 327.383 78.8933 327.778 78.2C328.173 77.5067 328.711 76.9733 329.394 76.6C330.077 76.2267 330.839 76.04 331.682 76.04C332.525 76.04 333.287 76.2267 333.97 76.6C334.653 76.9733 335.191 77.5067 335.586 78.2C335.981 78.8933 336.178 79.688 336.178 80.584C336.178 81.48 335.975 82.2747 335.57 82.968C335.165 83.6613 334.61 84.2 333.906 84.584C333.213 84.9573 332.445 85.144 331.602 85.144ZM331.602 83.56C332.071 83.56 332.509 83.448 332.914 83.224C333.33 83 333.666 82.664 333.922 82.216C334.178 81.768 334.306 81.224 334.306 80.584C334.306 79.944 334.183 79.4053 333.938 78.968C333.693 78.52 333.367 78.184 332.962 77.96C332.557 77.736 332.119 77.624 331.65 77.624C331.181 77.624 330.743 77.736 330.338 77.96C329.943 78.184 329.629 78.52 329.394 78.968C329.159 79.4053 329.042 79.944 329.042 80.584C329.042 81.5333 329.282 82.2693 329.762 82.792C330.253 83.304 330.866 83.56 331.602 83.56ZM345.965 76.184V85H344.141V83.96C343.853 84.3227 343.475 84.6107 343.005 84.824C342.547 85.0267 342.056 85.128 341.533 85.128C340.84 85.128 340.216 84.984 339.661 84.696C339.117 84.408 338.685 83.9813 338.365 83.416C338.056 82.8507 337.901 82.168 337.901 81.368V76.184H339.709V81.096C339.709 81.8853 339.907 82.4933 340.301 82.92C340.696 83.336 341.235 83.544 341.917 83.544C342.6 83.544 343.139 83.336 343.533 82.92C343.939 82.4933 344.141 81.8853 344.141 81.096V76.184H345.965ZM350.196 77.464C350.463 77.016 350.815 76.6693 351.252 76.424C351.7 76.168 352.228 76.04 352.836 76.04V77.928H352.372C351.657 77.928 351.113 78.1093 350.74 78.472C350.377 78.8347 350.196 79.464 350.196 80.36V85H348.372V76.184H350.196V77.464ZM362.221 76.04C362.903 76.04 363.506 76.1787 364.029 76.456C364.562 76.7227 364.978 77.0587 365.277 77.464V76.184H367.117V85.144C367.117 85.9547 366.946 86.6747 366.605 87.304C366.263 87.944 365.767 88.4453 365.117 88.808C364.477 89.1707 363.709 89.352 362.813 89.352C361.618 89.352 360.626 89.0693 359.837 88.504C359.047 87.9493 358.599 87.192 358.493 86.232H360.301C360.439 86.6907 360.733 87.0587 361.181 87.336C361.639 87.624 362.183 87.768 362.813 87.768C363.549 87.768 364.141 87.544 364.589 87.096C365.047 86.648 365.277 85.9973 365.277 85.144V83.672C364.967 84.088 364.546 84.44 364.013 84.728C363.49 85.0053 362.893 85.144 362.221 85.144C361.453 85.144 360.749 84.952 360.109 84.568C359.479 84.1733 358.978 83.6293 358.605 82.936C358.242 82.232 358.061 81.4373 358.061 80.552C358.061 79.6667 358.242 78.8827 358.605 78.2C358.978 77.5173 359.479 76.9893 360.109 76.616C360.749 76.232 361.453 76.04 362.221 76.04ZM365.277 80.584C365.277 79.976 365.149 79.448 364.893 79C364.647 78.552 364.322 78.2107 363.917 77.976C363.511 77.7413 363.074 77.624 362.605 77.624C362.135 77.624 361.698 77.7413 361.293 77.976C360.887 78.2 360.557 78.536 360.301 78.984C360.055 79.4213 359.933 79.944 359.933 80.552C359.933 81.16 360.055 81.6933 360.301 82.152C360.557 82.6107 360.887 82.9627 361.293 83.208C361.709 83.4427 362.146 83.56 362.605 83.56C363.074 83.56 363.511 83.4427 363.917 83.208C364.322 82.9733 364.647 82.632 364.893 82.184C365.149 81.7253 365.277 81.192 365.277 80.584ZM371.337 77.464C371.603 77.016 371.955 76.6693 372.393 76.424C372.841 76.168 373.369 76.04 373.977 76.04V77.928H373.513C372.798 77.928 372.254 78.1093 371.881 78.472C371.518 78.8347 371.337 79.464 371.337 80.36V85H369.513V76.184H371.337V77.464ZM383.733 80.376C383.733 80.7067 383.712 81.0053 383.669 81.272H376.933C376.986 81.976 377.248 82.5413 377.717 82.968C378.186 83.3947 378.762 83.608 379.445 83.608C380.426 83.608 381.12 83.1973 381.525 82.376H383.493C383.226 83.1867 382.741 83.8533 382.037 84.376C381.344 84.888 380.48 85.144 379.445 85.144C378.602 85.144 377.845 84.9573 377.173 84.584C376.512 84.2 375.989 83.6667 375.605 82.984C375.232 82.2907 375.045 81.4907 375.045 80.584C375.045 79.6773 375.226 78.8827 375.589 78.2C375.962 77.5067 376.48 76.9733 377.141 76.6C377.813 76.2267 378.581 76.04 379.445 76.04C380.277 76.04 381.018 76.2213 381.669 76.584C382.32 76.9467 382.826 77.4587 383.189 78.12C383.552 78.7707 383.733 79.5227 383.733 80.376ZM381.829 79.8C381.818 79.128 381.578 78.5893 381.109 78.184C380.64 77.7787 380.058 77.576 379.365 77.576C378.736 77.576 378.197 77.7787 377.749 78.184C377.301 78.5787 377.034 79.1173 376.949 79.8H381.829ZM384.92 80.552C384.92 79.6667 385.101 78.8827 385.464 78.2C385.837 77.5173 386.339 76.9893 386.968 76.616C387.608 76.232 388.312 76.04 389.08 76.04C389.773 76.04 390.376 76.1787 390.888 76.456C391.411 76.7227 391.827 77.0587 392.136 77.464V76.184H393.976V85H392.136V83.688C391.827 84.104 391.405 84.4507 390.872 84.728C390.339 85.0053 389.731 85.144 389.048 85.144C388.291 85.144 387.597 84.952 386.968 84.568C386.339 84.1733 385.837 83.6293 385.464 82.936C385.101 82.232 384.92 81.4373 384.92 80.552ZM392.136 80.584C392.136 79.976 392.008 79.448 391.752 79C391.507 78.552 391.181 78.2107 390.776 77.976C390.371 77.7413 389.933 77.624 389.464 77.624C388.995 77.624 388.557 77.7413 388.152 77.976C387.747 78.2 387.416 78.536 387.16 78.984C386.915 79.4213 386.792 79.944 386.792 80.552C386.792 81.16 386.915 81.6933 387.16 82.152C387.416 82.6107 387.747 82.9627 388.152 83.208C388.568 83.4427 389.005 83.56 389.464 83.56C389.933 83.56 390.371 83.4427 390.776 83.208C391.181 82.9733 391.507 82.632 391.752 82.184C392.008 81.7253 392.136 81.192 392.136 80.584ZM398.5 77.672V82.552C398.5 82.8827 398.575 83.1227 398.724 83.272C398.884 83.4107 399.151 83.48 399.524 83.48H400.644V85H399.204C398.383 85 397.753 84.808 397.316 84.424C396.879 84.04 396.66 83.416 396.66 82.552V77.672H395.62V76.184H396.66V73.992H398.5V76.184H400.644V77.672H398.5ZM409.681 85.144C408.988 85.144 408.364 85.0213 407.809 84.776C407.265 84.52 406.833 84.1787 406.513 83.752C406.193 83.3147 406.023 82.8293 406.001 82.296H407.889C407.921 82.6693 408.097 82.984 408.417 83.24C408.748 83.4853 409.159 83.608 409.649 83.608C410.161 83.608 410.556 83.512 410.833 83.32C411.121 83.1173 411.265 82.8613 411.265 82.552C411.265 82.2213 411.105 81.976 410.785 81.816C410.476 81.656 409.98 81.48 409.297 81.288C408.636 81.1067 408.097 80.9307 407.681 80.76C407.265 80.5893 406.903 80.328 406.593 79.976C406.295 79.624 406.145 79.16 406.145 78.584C406.145 78.1147 406.284 77.688 406.561 77.304C406.839 76.9093 407.233 76.6 407.745 76.376C408.268 76.152 408.865 76.04 409.537 76.04C410.54 76.04 411.345 76.296 411.953 76.808C412.572 77.3093 412.903 77.9973 412.945 78.872H411.121C411.089 78.4773 410.929 78.1627 410.641 77.928C410.353 77.6933 409.964 77.576 409.473 77.576C408.993 77.576 408.625 77.6667 408.369 77.848C408.113 78.0293 407.985 78.2693 407.985 78.568C407.985 78.8027 408.071 79 408.241 79.16C408.412 79.32 408.62 79.448 408.865 79.544C409.111 79.6293 409.473 79.7413 409.953 79.88C410.593 80.0507 411.116 80.2267 411.521 80.408C411.937 80.5787 412.295 80.8347 412.593 81.176C412.892 81.5173 413.047 81.9707 413.057 82.536C413.057 83.0373 412.919 83.4853 412.641 83.88C412.364 84.2747 411.969 84.584 411.457 84.808C410.956 85.032 410.364 85.144 409.681 85.144ZM423.108 80.376C423.108 80.7067 423.087 81.0053 423.044 81.272H416.308C416.361 81.976 416.623 82.5413 417.092 82.968C417.561 83.3947 418.137 83.608 418.82 83.608C419.801 83.608 420.495 83.1973 420.9 82.376H422.868C422.601 83.1867 422.116 83.8533 421.412 84.376C420.719 84.888 419.855 85.144 418.82 85.144C417.977 85.144 417.22 84.9573 416.548 84.584C415.887 84.2 415.364 83.6667 414.98 82.984C414.607 82.2907 414.42 81.4907 414.42 80.584C414.42 79.6773 414.601 78.8827 414.964 78.2C415.337 77.5067 415.855 76.9733 416.516 76.6C417.188 76.2267 417.956 76.04 418.82 76.04C419.652 76.04 420.393 76.2213 421.044 76.584C421.695 76.9467 422.201 77.4587 422.564 78.12C422.927 78.7707 423.108 79.5227 423.108 80.376ZM421.204 79.8C421.193 79.128 420.953 78.5893 420.484 78.184C420.015 77.7787 419.433 77.576 418.74 77.576C418.111 77.576 417.572 77.7787 417.124 78.184C416.676 78.5787 416.409 79.1173 416.324 79.8H421.204ZM426.727 73.16V85H424.903V73.16H426.727ZM437.202 80.376C437.202 80.7067 437.181 81.0053 437.138 81.272H430.402C430.455 81.976 430.717 82.5413 431.186 82.968C431.655 83.3947 432.231 83.608 432.914 83.608C433.895 83.608 434.589 83.1973 434.994 82.376H436.962C436.695 83.1867 436.21 83.8533 435.506 84.376C434.813 84.888 433.949 85.144 432.914 85.144C432.071 85.144 431.314 84.9573 430.642 84.584C429.981 84.2 429.458 83.6667 429.074 82.984C428.701 82.2907 428.514 81.4907 428.514 80.584C428.514 79.6773 428.695 78.8827 429.058 78.2C429.431 77.5067 429.949 76.9733 430.61 76.6C431.282 76.2267 432.05 76.04 432.914 76.04C433.746 76.04 434.487 76.2213 435.138 76.584C435.789 76.9467 436.295 77.4587 436.658 78.12C437.021 78.7707 437.202 79.5227 437.202 80.376ZM435.298 79.8C435.287 79.128 435.047 78.5893 434.578 78.184C434.109 77.7787 433.527 77.576 432.834 77.576C432.205 77.576 431.666 77.7787 431.218 78.184C430.77 78.5787 430.503 79.1173 430.418 79.8H435.298ZM438.389 80.584C438.389 79.6773 438.57 78.8827 438.933 78.2C439.306 77.5067 439.818 76.9733 440.469 76.6C441.12 76.2267 441.866 76.04 442.709 76.04C443.776 76.04 444.656 76.296 445.349 76.808C446.053 77.3093 446.528 78.0293 446.773 78.968H444.805C444.645 78.5307 444.389 78.1893 444.037 77.944C443.685 77.6987 443.242 77.576 442.709 77.576C441.962 77.576 441.365 77.8427 440.917 78.376C440.48 78.8987 440.261 79.6347 440.261 80.584C440.261 81.5333 440.48 82.2747 440.917 82.808C441.365 83.3413 441.962 83.608 442.709 83.608C443.765 83.608 444.464 83.144 444.805 82.216H446.773C446.517 83.112 446.037 83.8267 445.333 84.36C444.629 84.8827 443.754 85.144 442.709 85.144C441.866 85.144 441.12 84.9573 440.469 84.584C439.818 84.2 439.306 83.6667 438.933 82.984C438.57 82.2907 438.389 81.4907 438.389 80.584ZM450.719 77.672V82.552C450.719 82.8827 450.793 83.1227 450.943 83.272C451.103 83.4107 451.369 83.48 451.743 83.48H452.863V85H451.423C450.601 85 449.972 84.808 449.535 84.424C449.097 84.04 448.879 83.416 448.879 82.552V77.672H447.839V76.184H448.879V73.992H450.719V76.184H452.863V77.672H450.719ZM455.472 75.016C455.141 75.016 454.864 74.904 454.64 74.68C454.416 74.456 454.304 74.1787 454.304 73.848C454.304 73.5173 454.416 73.24 454.64 73.016C454.864 72.792 455.141 72.68 455.472 72.68C455.792 72.68 456.064 72.792 456.288 73.016C456.512 73.24 456.624 73.5173 456.624 73.848C456.624 74.1787 456.512 74.456 456.288 74.68C456.064 74.904 455.792 75.016 455.472 75.016ZM456.368 76.184V85H454.544V76.184H456.368ZM462.587 85.144C461.755 85.144 461.003 84.9573 460.331 84.584C459.659 84.2 459.131 83.6667 458.747 82.984C458.363 82.2907 458.171 81.4907 458.171 80.584C458.171 79.688 458.368 78.8933 458.763 78.2C459.157 77.5067 459.696 76.9733 460.379 76.6C461.061 76.2267 461.824 76.04 462.667 76.04C463.509 76.04 464.272 76.2267 464.955 76.6C465.637 76.9733 466.176 77.5067 466.571 78.2C466.965 78.8933 467.163 79.688 467.163 80.584C467.163 81.48 466.96 82.2747 466.555 82.968C466.149 83.6613 465.595 84.2 464.891 84.584C464.197 84.9573 463.429 85.144 462.587 85.144ZM462.587 83.56C463.056 83.56 463.493 83.448 463.899 83.224C464.315 83 464.651 82.664 464.907 82.216C465.163 81.768 465.291 81.224 465.291 80.584C465.291 79.944 465.168 79.4053 464.923 78.968C464.677 78.52 464.352 78.184 463.947 77.96C463.541 77.736 463.104 77.624 462.635 77.624C462.165 77.624 461.728 77.736 461.323 77.96C460.928 78.184 460.613 78.52 460.379 78.968C460.144 79.4053 460.027 79.944 460.027 80.584C460.027 81.5333 460.267 82.2693 460.747 82.792C461.237 83.304 461.851 83.56 462.587 83.56ZM473.414 76.04C474.107 76.04 474.726 76.184 475.27 76.472C475.824 76.76 476.256 77.1867 476.566 77.752C476.875 78.3173 477.03 79 477.03 79.8V85H475.222V80.072C475.222 79.2827 475.024 78.68 474.63 78.264C474.235 77.8373 473.696 77.624 473.014 77.624C472.331 77.624 471.787 77.8373 471.382 78.264C470.987 78.68 470.79 79.2827 470.79 80.072V85H468.966V76.184H470.79V77.192C471.088 76.8293 471.467 76.5467 471.926 76.344C472.395 76.1413 472.891 76.04 473.414 76.04Z" fill="#9F9F9F"/>
</svg>
