<svg width="454" height="120" viewBox="0 0 454 120" fill="none" xmlns="http://www.w3.org/2000/svg">
<path d="M23.64 66.42C19.68 66.42 16.04 65.5 12.72 63.66C9.44 61.82 6.82 59.26 4.86 55.98C2.94 52.66 1.98 48.94 1.98 44.82C1.98 40.7 2.94 37 4.86 33.72C6.82 30.44 9.44 27.88 12.72 26.04C16.04 24.2 19.68 23.28 23.64 23.28C27.6 23.28 31.22 24.2 34.5 26.04C37.82 27.88 40.42 30.44 42.3 33.72C44.22 37 45.18 40.7 45.18 44.82C45.18 48.94 44.22 52.66 42.3 55.98C40.38 59.26 37.78 61.82 34.5 63.66C31.22 65.5 27.6 66.42 23.64 66.42ZM23.64 57.06C27 57.06 29.68 55.94 31.68 53.7C33.72 51.46 34.74 48.5 34.74 44.82C34.74 41.1 33.72 38.14 31.68 35.94C29.68 33.7 27 32.58 23.64 32.58C20.24 32.58 17.52 33.68 15.48 35.88C13.48 38.08 12.48 41.06 12.48 44.82C12.48 48.54 13.48 51.52 15.48 53.76C17.52 55.96 20.24 57.06 23.64 57.06ZM83.948 32.52V66H73.688V61.44C72.648 62.92 71.228 64.12 69.428 65.04C67.668 65.92 65.708 66.36 63.548 66.36C60.988 66.36 58.728 65.8 56.768 64.68C54.808 63.52 53.288 61.86 52.208 59.7C51.128 57.54 50.588 55 50.588 52.08V32.52H60.788V50.7C60.788 52.94 61.368 54.68 62.528 55.92C63.688 57.16 65.248 57.78 67.208 57.78C69.208 57.78 70.788 57.16 71.948 55.92C73.108 54.68 73.688 52.94 73.688 50.7V32.52H83.948ZM101.578 38.1C102.778 36.26 104.278 34.82 106.078 33.78C107.878 32.7 109.878 32.16 112.078 32.16V43.02H109.258C106.698 43.02 104.778 43.58 103.498 44.7C102.218 45.78 101.578 47.7 101.578 50.46V66H91.3177V32.52H101.578V38.1ZM139.957 23.88V66H129.697V23.88H139.957ZM167.792 32.16C171.712 32.16 174.832 33.44 177.152 36C179.512 38.52 180.692 42 180.692 46.44V66H170.492V47.82C170.492 45.58 169.912 43.84 168.752 42.6C167.592 41.36 166.032 40.74 164.072 40.74C162.112 40.74 160.552 41.36 159.392 42.6C158.232 43.84 157.652 45.58 157.652 47.82V66H147.392V32.52H157.652V36.96C158.692 35.48 160.092 34.32 161.852 33.48C163.612 32.6 165.592 32.16 167.792 32.16ZM201.442 66.48C198.522 66.48 195.922 65.98 193.642 64.98C191.362 63.98 189.562 62.62 188.242 60.9C186.922 59.14 186.182 57.18 186.022 55.02H196.162C196.282 56.18 196.822 57.12 197.782 57.84C198.742 58.56 199.922 58.92 201.322 58.92C202.602 58.92 203.582 58.68 204.262 58.2C204.982 57.68 205.342 57.02 205.342 56.22C205.342 55.26 204.842 54.56 203.842 54.12C202.842 53.64 201.222 53.12 198.982 52.56C196.582 52 194.582 51.42 192.982 50.82C191.382 50.18 190.002 49.2 188.842 47.88C187.682 46.52 187.102 44.7 187.102 42.42C187.102 40.5 187.622 38.76 188.662 37.2C189.742 35.6 191.302 34.34 193.342 33.42C195.422 32.5 197.882 32.04 200.722 32.04C204.922 32.04 208.222 33.08 210.622 35.16C213.062 37.24 214.462 40 214.822 43.44H205.342C205.182 42.28 204.662 41.36 203.782 40.68C202.942 40 201.822 39.66 200.422 39.66C199.222 39.66 198.302 39.9 197.662 40.38C197.022 40.82 196.702 41.44 196.702 42.24C196.702 43.2 197.202 43.92 198.202 44.4C199.242 44.88 200.842 45.36 203.002 45.84C205.482 46.48 207.502 47.12 209.062 47.76C210.622 48.36 211.982 49.36 213.142 50.76C214.342 52.12 214.962 53.96 215.002 56.28C215.002 58.24 214.442 60 213.322 61.56C212.242 63.08 210.662 64.28 208.582 65.16C206.542 66.04 204.162 66.48 201.442 66.48ZM239.939 57.3V66H234.719C230.999 66 228.099 65.1 226.019 63.3C223.939 61.46 222.899 58.48 222.899 54.36V41.04H218.819V32.52H222.899V24.36H233.159V32.52H239.879V41.04H233.159V54.48C233.159 55.48 233.399 56.2 233.879 56.64C234.359 57.08 235.159 57.3 236.279 57.3H239.939ZM243.614 49.2C243.614 45.76 244.254 42.74 245.534 40.14C246.854 37.54 248.634 35.54 250.874 34.14C253.114 32.74 255.614 32.04 258.374 32.04C260.734 32.04 262.794 32.52 264.554 33.48C266.354 34.44 267.734 35.7 268.694 37.26V32.52H278.954V66H268.694V61.26C267.694 62.82 266.294 64.08 264.494 65.04C262.734 66 260.674 66.48 258.314 66.48C255.594 66.48 253.114 65.78 250.874 64.38C248.634 62.94 246.854 60.92 245.534 58.32C244.254 55.68 243.614 52.64 243.614 49.2ZM268.694 49.26C268.694 46.7 267.974 44.68 266.534 43.2C265.134 41.72 263.414 40.98 261.374 40.98C259.334 40.98 257.594 41.72 256.154 43.2C254.754 44.64 254.054 46.64 254.054 49.2C254.054 51.76 254.754 53.8 256.154 55.32C257.594 56.8 259.334 57.54 261.374 57.54C263.414 57.54 265.134 56.8 266.534 55.32C267.974 53.84 268.694 51.82 268.694 49.26ZM299.096 32.04C301.456 32.04 303.516 32.52 305.276 33.48C307.076 34.44 308.456 35.7 309.416 37.26V32.52H319.676V65.94C319.676 69.02 319.056 71.8 317.816 74.28C316.616 76.8 314.756 78.8 312.236 80.28C309.756 81.76 306.656 82.5 302.936 82.5C297.976 82.5 293.956 81.32 290.876 78.96C287.796 76.64 286.036 73.48 285.596 69.48H295.736C296.056 70.76 296.816 71.76 298.016 72.48C299.216 73.24 300.696 73.62 302.456 73.62C304.576 73.62 306.256 73 307.496 71.76C308.776 70.56 309.416 68.62 309.416 65.94V61.2C308.416 62.76 307.036 64.04 305.276 65.04C303.516 66 301.456 66.48 299.096 66.48C296.336 66.48 293.836 65.78 291.596 64.38C289.356 62.94 287.576 60.92 286.256 58.32C284.976 55.68 284.336 52.64 284.336 49.2C284.336 45.76 284.976 42.74 286.256 40.14C287.576 37.54 289.356 35.54 291.596 34.14C293.836 32.74 296.336 32.04 299.096 32.04ZM309.416 49.26C309.416 46.7 308.696 44.68 307.256 43.2C305.856 41.72 304.136 40.98 302.096 40.98C300.056 40.98 298.316 41.72 296.876 43.2C295.476 44.64 294.776 46.64 294.776 49.2C294.776 51.76 295.476 53.8 296.876 55.32C298.316 56.8 300.056 57.54 302.096 57.54C304.136 57.54 305.856 56.8 307.256 55.32C308.696 53.84 309.416 51.82 309.416 49.26ZM337.359 38.1C338.559 36.26 340.059 34.82 341.859 33.78C343.659 32.7 345.659 32.16 347.859 32.16V43.02H345.039C342.479 43.02 340.559 43.58 339.279 44.7C337.999 45.78 337.359 47.7 337.359 50.46V66H327.099V32.52H337.359V38.1ZM350.723 49.2C350.723 45.76 351.363 42.74 352.643 40.14C353.963 37.54 355.743 35.54 357.983 34.14C360.223 32.74 362.723 32.04 365.483 32.04C367.843 32.04 369.903 32.52 371.663 33.48C373.463 34.44 374.843 35.7 375.803 37.26V32.52H386.063V66H375.803V61.26C374.803 62.82 373.403 64.08 371.603 65.04C369.843 66 367.783 66.48 365.423 66.48C362.703 66.48 360.223 65.78 357.983 64.38C355.743 62.94 353.963 60.92 352.643 58.32C351.363 55.68 350.723 52.64 350.723 49.2ZM375.803 49.26C375.803 46.7 375.083 44.68 373.643 43.2C372.243 41.72 370.523 40.98 368.483 40.98C366.443 40.98 364.703 41.72 363.263 43.2C361.863 44.64 361.163 46.64 361.163 49.2C361.163 51.76 361.863 53.8 363.263 55.32C364.703 56.8 366.443 57.54 368.483 57.54C370.523 57.54 372.243 56.8 373.643 55.32C375.083 53.84 375.803 51.82 375.803 49.26ZM436.206 32.16C440.366 32.16 443.666 33.42 446.106 35.94C448.586 38.46 449.826 41.96 449.826 46.44V66H439.626V47.82C439.626 45.66 439.046 44 437.886 42.84C436.766 41.64 435.206 41.04 433.206 41.04C431.206 41.04 429.626 41.64 428.466 42.84C427.346 44 426.786 45.66 426.786 47.82V66H416.586V47.82C416.586 45.66 416.006 44 414.846 42.84C413.726 41.64 412.166 41.04 410.166 41.04C408.166 41.04 406.586 41.64 405.426 42.84C404.306 44 403.746 45.66 403.746 47.82V66H393.486V32.52H403.746V36.72C404.786 35.32 406.146 34.22 407.826 33.42C409.506 32.58 411.406 32.16 413.526 32.16C416.046 32.16 418.286 32.7 420.246 33.78C422.246 34.86 423.806 36.4 424.926 38.4C426.086 36.56 427.666 35.06 429.666 33.9C431.666 32.74 433.846 32.16 436.206 32.16Z" fill="black"/>
<path d="M87.42 98.06V99.54H81.36V104.24H86.28V105.72H81.36V112H79.54V98.06H87.42ZM94.3981 112.18C93.3715 112.18 92.4381 111.947 91.5981 111.48C90.7715 111.013 90.1181 110.353 89.6381 109.5C89.1715 108.633 88.9381 107.633 88.9381 106.5C88.9381 105.38 89.1781 104.393 89.6581 103.54C90.1515 102.673 90.8181 102.013 91.6581 101.56C92.4981 101.093 93.4381 100.86 94.4781 100.86C95.5181 100.86 96.4581 101.093 97.2981 101.56C98.1381 102.013 98.7981 102.667 99.2781 103.52C99.7715 104.373 100.018 105.367 100.018 106.5C100.018 107.633 99.7648 108.633 99.2581 109.5C98.7648 110.353 98.0915 111.013 97.2381 111.48C96.3848 111.947 95.4381 112.18 94.3981 112.18ZM94.3981 110.58C95.0515 110.58 95.6648 110.427 96.2381 110.12C96.8115 109.813 97.2715 109.353 97.6181 108.74C97.9781 108.127 98.1581 107.38 98.1581 106.5C98.1581 105.62 97.9848 104.873 97.6381 104.26C97.2915 103.647 96.8381 103.193 96.2781 102.9C95.7181 102.593 95.1115 102.44 94.4581 102.44C93.7915 102.44 93.1781 102.593 92.6181 102.9C92.0715 103.193 91.6315 103.647 91.2981 104.26C90.9648 104.873 90.7981 105.62 90.7981 106.5C90.7981 107.393 90.9581 108.147 91.2781 108.76C91.6115 109.373 92.0515 109.833 92.5981 110.14C93.1448 110.433 93.7448 110.58 94.3981 110.58ZM104.231 97.2V112H102.411V97.2H104.231ZM109.153 97.2V112H107.333V97.2H109.153ZM117.035 112.18C116.008 112.18 115.075 111.947 114.235 111.48C113.408 111.013 112.755 110.353 112.275 109.5C111.808 108.633 111.575 107.633 111.575 106.5C111.575 105.38 111.815 104.393 112.295 103.54C112.788 102.673 113.455 102.013 114.295 101.56C115.135 101.093 116.075 100.86 117.115 100.86C118.155 100.86 119.095 101.093 119.935 101.56C120.775 102.013 121.435 102.667 121.915 103.52C122.408 104.373 122.655 105.367 122.655 106.5C122.655 107.633 122.402 108.633 121.895 109.5C121.402 110.353 120.728 111.013 119.875 111.48C119.022 111.947 118.075 112.18 117.035 112.18ZM117.035 110.58C117.688 110.58 118.302 110.427 118.875 110.12C119.448 109.813 119.908 109.353 120.255 108.74C120.615 108.127 120.795 107.38 120.795 106.5C120.795 105.62 120.622 104.873 120.275 104.26C119.928 103.647 119.475 103.193 118.915 102.9C118.355 102.593 117.748 102.44 117.095 102.44C116.428 102.44 115.815 102.593 115.255 102.9C114.708 103.193 114.268 103.647 113.935 104.26C113.602 104.873 113.435 105.62 113.435 106.5C113.435 107.393 113.595 108.147 113.915 108.76C114.248 109.373 114.688 109.833 115.235 110.14C115.782 110.433 116.382 110.58 117.035 110.58ZM139.648 101.04L136.228 112H134.348L131.708 103.3L129.068 112H127.188L123.748 101.04H125.608L128.128 110.24L130.848 101.04H132.708L135.368 110.26L137.848 101.04H139.648ZM151.566 112.18C150.539 112.18 149.606 111.947 148.766 111.48C147.939 111.013 147.286 110.353 146.806 109.5C146.339 108.633 146.106 107.633 146.106 106.5C146.106 105.38 146.346 104.393 146.826 103.54C147.319 102.673 147.986 102.013 148.826 101.56C149.666 101.093 150.606 100.86 151.646 100.86C152.686 100.86 153.626 101.093 154.466 101.56C155.306 102.013 155.966 102.667 156.446 103.52C156.939 104.373 157.186 105.367 157.186 106.5C157.186 107.633 156.933 108.633 156.426 109.5C155.933 110.353 155.259 111.013 154.406 111.48C153.553 111.947 152.606 112.18 151.566 112.18ZM151.566 110.58C152.219 110.58 152.833 110.427 153.406 110.12C153.979 109.813 154.439 109.353 154.786 108.74C155.146 108.127 155.326 107.38 155.326 106.5C155.326 105.62 155.153 104.873 154.806 104.26C154.459 103.647 154.006 103.193 153.446 102.9C152.886 102.593 152.279 102.44 151.626 102.44C150.959 102.44 150.346 102.593 149.786 102.9C149.239 103.193 148.799 103.647 148.466 104.26C148.133 104.873 147.966 105.62 147.966 106.5C147.966 107.393 148.126 108.147 148.446 108.76C148.779 109.373 149.219 109.833 149.766 110.14C150.313 110.433 150.913 110.58 151.566 110.58ZM169.299 101.04V112H167.479V110.38C167.132 110.94 166.646 111.38 166.019 111.7C165.406 112.007 164.726 112.16 163.979 112.16C163.126 112.16 162.359 111.987 161.679 111.64C160.999 111.28 160.459 110.747 160.059 110.04C159.672 109.333 159.479 108.473 159.479 107.46V101.04H161.279V107.22C161.279 108.3 161.552 109.133 162.099 109.72C162.646 110.293 163.392 110.58 164.339 110.58C165.312 110.58 166.079 110.28 166.639 109.68C167.199 109.08 167.479 108.207 167.479 107.06V101.04H169.299ZM174.192 102.82C174.512 102.193 174.965 101.707 175.552 101.36C176.152 101.013 176.879 100.84 177.732 100.84V102.72H177.252C175.212 102.72 174.192 103.827 174.192 106.04V112H172.372V101.04H174.192V102.82ZM189.045 112.18C188.205 112.18 187.452 112.04 186.785 111.76C186.118 111.467 185.592 111.067 185.205 110.56C184.818 110.04 184.605 109.447 184.565 108.78H186.445C186.498 109.327 186.752 109.773 187.205 110.12C187.672 110.467 188.278 110.64 189.025 110.64C189.718 110.64 190.265 110.487 190.665 110.18C191.065 109.873 191.265 109.487 191.265 109.02C191.265 108.54 191.052 108.187 190.625 107.96C190.198 107.72 189.538 107.487 188.645 107.26C187.832 107.047 187.165 106.833 186.645 106.62C186.138 106.393 185.698 106.067 185.325 105.64C184.965 105.2 184.785 104.627 184.785 103.92C184.785 103.36 184.952 102.847 185.285 102.38C185.618 101.913 186.092 101.547 186.705 101.28C187.318 101 188.018 100.86 188.805 100.86C190.018 100.86 190.998 101.167 191.745 101.78C192.492 102.393 192.892 103.233 192.945 104.3H191.125C191.085 103.727 190.852 103.267 190.425 102.92C190.012 102.573 189.452 102.4 188.745 102.4C188.092 102.4 187.572 102.54 187.185 102.82C186.798 103.1 186.605 103.467 186.605 103.92C186.605 104.28 186.718 104.58 186.945 104.82C187.185 105.047 187.478 105.233 187.825 105.38C188.185 105.513 188.678 105.667 189.305 105.84C190.092 106.053 190.732 106.267 191.225 106.48C191.718 106.68 192.138 106.987 192.485 107.4C192.845 107.813 193.032 108.353 193.045 109.02C193.045 109.62 192.878 110.16 192.545 110.64C192.212 111.12 191.738 111.5 191.125 111.78C190.525 112.047 189.832 112.18 189.045 112.18ZM197.834 102.54V109C197.834 109.533 197.948 109.913 198.174 110.14C198.401 110.353 198.794 110.46 199.354 110.46H200.694V112H199.054C198.041 112 197.281 111.767 196.774 111.3C196.268 110.833 196.014 110.067 196.014 109V102.54H194.594V101.04H196.014V98.28H197.834V101.04H200.694V102.54H197.834ZM207.679 112.18C206.653 112.18 205.719 111.947 204.879 111.48C204.053 111.013 203.399 110.353 202.919 109.5C202.453 108.633 202.219 107.633 202.219 106.5C202.219 105.38 202.459 104.393 202.939 103.54C203.433 102.673 204.099 102.013 204.939 101.56C205.779 101.093 206.719 100.86 207.759 100.86C208.799 100.86 209.739 101.093 210.579 101.56C211.419 102.013 212.079 102.667 212.559 103.52C213.053 104.373 213.299 105.367 213.299 106.5C213.299 107.633 213.046 108.633 212.539 109.5C212.046 110.353 211.373 111.013 210.519 111.48C209.666 111.947 208.719 112.18 207.679 112.18ZM207.679 110.58C208.333 110.58 208.946 110.427 209.519 110.12C210.093 109.813 210.553 109.353 210.899 108.74C211.259 108.127 211.439 107.38 211.439 106.5C211.439 105.62 211.266 104.873 210.919 104.26C210.573 103.647 210.119 103.193 209.559 102.9C208.999 102.593 208.393 102.44 207.739 102.44C207.073 102.44 206.459 102.593 205.899 102.9C205.353 103.193 204.913 103.647 204.579 104.26C204.246 104.873 204.079 105.62 204.079 106.5C204.079 107.393 204.239 108.147 204.559 108.76C204.893 109.373 205.333 109.833 205.879 110.14C206.426 110.433 207.026 110.58 207.679 110.58ZM217.512 102.82C217.832 102.193 218.286 101.707 218.872 101.36C219.472 101.013 220.199 100.84 221.052 100.84V102.72H220.572C218.532 102.72 217.512 103.827 217.512 106.04V112H215.692V101.04H217.512V102.82ZM233.153 106.1C233.153 106.447 233.133 106.813 233.093 107.2H224.333C224.4 108.28 224.767 109.127 225.433 109.74C226.113 110.34 226.933 110.64 227.893 110.64C228.68 110.64 229.333 110.46 229.853 110.1C230.387 109.727 230.76 109.233 230.973 108.62H232.933C232.64 109.673 232.053 110.533 231.173 111.2C230.293 111.853 229.2 112.18 227.893 112.18C226.853 112.18 225.92 111.947 225.093 111.48C224.28 111.013 223.64 110.353 223.173 109.5C222.707 108.633 222.473 107.633 222.473 106.5C222.473 105.367 222.7 104.373 223.153 103.52C223.607 102.667 224.24 102.013 225.053 101.56C225.88 101.093 226.827 100.86 227.893 100.86C228.933 100.86 229.853 101.087 230.653 101.54C231.453 101.993 232.067 102.62 232.493 103.42C232.933 104.207 233.153 105.1 233.153 106.1ZM231.273 105.72C231.273 105.027 231.12 104.433 230.813 103.94C230.507 103.433 230.087 103.053 229.553 102.8C229.033 102.533 228.453 102.4 227.813 102.4C226.893 102.4 226.107 102.693 225.453 103.28C224.813 103.867 224.447 104.68 224.353 105.72H231.273ZM245.668 112.18C244.641 112.18 243.708 111.947 242.868 111.48C242.041 111.013 241.388 110.353 240.908 109.5C240.441 108.633 240.208 107.633 240.208 106.5C240.208 105.38 240.448 104.393 240.928 103.54C241.421 102.673 242.088 102.013 242.928 101.56C243.768 101.093 244.708 100.86 245.748 100.86C246.788 100.86 247.728 101.093 248.568 101.56C249.408 102.013 250.068 102.667 250.548 103.52C251.041 104.373 251.288 105.367 251.288 106.5C251.288 107.633 251.034 108.633 250.528 109.5C250.034 110.353 249.361 111.013 248.508 111.48C247.654 111.947 246.708 112.18 245.668 112.18ZM245.668 110.58C246.321 110.58 246.934 110.427 247.508 110.12C248.081 109.813 248.541 109.353 248.888 108.74C249.248 108.127 249.428 107.38 249.428 106.5C249.428 105.62 249.254 104.873 248.908 104.26C248.561 103.647 248.108 103.193 247.548 102.9C246.988 102.593 246.381 102.44 245.728 102.44C245.061 102.44 244.448 102.593 243.888 102.9C243.341 103.193 242.901 103.647 242.568 104.26C242.234 104.873 242.068 105.62 242.068 106.5C242.068 107.393 242.228 108.147 242.548 108.76C242.881 109.373 243.321 109.833 243.868 110.14C244.414 110.433 245.014 110.58 245.668 110.58ZM259.021 100.84C260.354 100.84 261.434 101.247 262.261 102.06C263.087 102.86 263.501 104.02 263.501 105.54V112H261.701V105.8C261.701 104.707 261.427 103.873 260.881 103.3C260.334 102.713 259.587 102.42 258.641 102.42C257.681 102.42 256.914 102.72 256.341 103.32C255.781 103.92 255.501 104.793 255.501 105.94V112H253.681V101.04H255.501V102.6C255.861 102.04 256.347 101.607 256.961 101.3C257.587 100.993 258.274 100.84 259.021 100.84ZM273.626 98.06V112H271.806V98.06H273.626ZM282.068 100.84C283.401 100.84 284.481 101.247 285.308 102.06C286.134 102.86 286.548 104.02 286.548 105.54V112H284.748V105.8C284.748 104.707 284.474 103.873 283.928 103.3C283.381 102.713 282.634 102.42 281.688 102.42C280.728 102.42 279.961 102.72 279.388 103.32C278.828 103.92 278.548 104.793 278.548 105.94V112H276.728V101.04H278.548V102.6C278.908 102.04 279.394 101.607 280.008 101.3C280.634 100.993 281.321 100.84 282.068 100.84ZM293.4 112.18C292.56 112.18 291.807 112.04 291.14 111.76C290.474 111.467 289.947 111.067 289.56 110.56C289.174 110.04 288.96 109.447 288.92 108.78H290.8C290.854 109.327 291.107 109.773 291.56 110.12C292.027 110.467 292.634 110.64 293.38 110.64C294.074 110.64 294.62 110.487 295.02 110.18C295.42 109.873 295.62 109.487 295.62 109.02C295.62 108.54 295.407 108.187 294.98 107.96C294.554 107.72 293.894 107.487 293 107.26C292.187 107.047 291.52 106.833 291 106.62C290.494 106.393 290.054 106.067 289.68 105.64C289.32 105.2 289.14 104.627 289.14 103.92C289.14 103.36 289.307 102.847 289.64 102.38C289.974 101.913 290.447 101.547 291.06 101.28C291.674 101 292.374 100.86 293.16 100.86C294.374 100.86 295.354 101.167 296.1 101.78C296.847 102.393 297.247 103.233 297.3 104.3H295.48C295.44 103.727 295.207 103.267 294.78 102.92C294.367 102.573 293.807 102.4 293.1 102.4C292.447 102.4 291.927 102.54 291.54 102.82C291.154 103.1 290.96 103.467 290.96 103.92C290.96 104.28 291.074 104.58 291.3 104.82C291.54 105.047 291.834 105.233 292.18 105.38C292.54 105.513 293.034 105.667 293.66 105.84C294.447 106.053 295.087 106.267 295.58 106.48C296.074 106.68 296.494 106.987 296.84 107.4C297.2 107.813 297.387 108.353 297.4 109.02C297.4 109.62 297.234 110.16 296.9 110.64C296.567 111.12 296.094 111.5 295.48 111.78C294.88 112.047 294.187 112.18 293.4 112.18ZM302.19 102.54V109C302.19 109.533 302.303 109.913 302.53 110.14C302.756 110.353 303.15 110.46 303.71 110.46H305.05V112H303.41C302.396 112 301.636 111.767 301.13 111.3C300.623 110.833 300.37 110.067 300.37 109V102.54H298.95V101.04H300.37V98.28H302.19V101.04H305.05V102.54H302.19ZM306.575 106.48C306.575 105.36 306.802 104.38 307.255 103.54C307.708 102.687 308.328 102.027 309.115 101.56C309.915 101.093 310.802 100.86 311.775 100.86C312.735 100.86 313.568 101.067 314.275 101.48C314.982 101.893 315.508 102.413 315.855 103.04V101.04H317.695V112H315.855V109.96C315.495 110.6 314.955 111.133 314.235 111.56C313.528 111.973 312.702 112.18 311.755 112.18C310.782 112.18 309.902 111.94 309.115 111.46C308.328 110.98 307.708 110.307 307.255 109.44C306.802 108.573 306.575 107.587 306.575 106.48ZM315.855 106.5C315.855 105.673 315.688 104.953 315.355 104.34C315.022 103.727 314.568 103.26 313.995 102.94C313.435 102.607 312.815 102.44 312.135 102.44C311.455 102.44 310.835 102.6 310.275 102.92C309.715 103.24 309.268 103.707 308.935 104.32C308.602 104.933 308.435 105.653 308.435 106.48C308.435 107.32 308.602 108.053 308.935 108.68C309.268 109.293 309.715 109.767 310.275 110.1C310.835 110.42 311.455 110.58 312.135 110.58C312.815 110.58 313.435 110.42 313.995 110.1C314.568 109.767 315.022 109.293 315.355 108.68C315.688 108.053 315.855 107.327 315.855 106.5ZM325.29 100.86C326.237 100.86 327.064 101.067 327.77 101.48C328.49 101.893 329.024 102.413 329.37 103.04V101.04H331.21V112.24C331.21 113.24 330.997 114.127 330.57 114.9C330.144 115.687 329.53 116.3 328.73 116.74C327.944 117.18 327.024 117.4 325.97 117.4C324.53 117.4 323.33 117.06 322.37 116.38C321.41 115.7 320.844 114.773 320.67 113.6H322.47C322.67 114.267 323.084 114.8 323.71 115.2C324.337 115.613 325.09 115.82 325.97 115.82C326.97 115.82 327.784 115.507 328.41 114.88C329.05 114.253 329.37 113.373 329.37 112.24V109.94C329.01 110.58 328.477 111.113 327.77 111.54C327.064 111.967 326.237 112.18 325.29 112.18C324.317 112.18 323.43 111.94 322.63 111.46C321.844 110.98 321.224 110.307 320.77 109.44C320.317 108.573 320.09 107.587 320.09 106.48C320.09 105.36 320.317 104.38 320.77 103.54C321.224 102.687 321.844 102.027 322.63 101.56C323.43 101.093 324.317 100.86 325.29 100.86ZM329.37 106.5C329.37 105.673 329.204 104.953 328.87 104.34C328.537 103.727 328.084 103.26 327.51 102.94C326.95 102.607 326.33 102.44 325.65 102.44C324.97 102.44 324.35 102.6 323.79 102.92C323.23 103.24 322.784 103.707 322.45 104.32C322.117 104.933 321.95 105.653 321.95 106.48C321.95 107.32 322.117 108.053 322.45 108.68C322.784 109.293 323.23 109.767 323.79 110.1C324.35 110.42 324.97 110.58 325.65 110.58C326.33 110.58 326.95 110.42 327.51 110.1C328.084 109.767 328.537 109.293 328.87 108.68C329.204 108.053 329.37 107.327 329.37 106.5ZM336.106 102.82C336.426 102.193 336.879 101.707 337.466 101.36C338.066 101.013 338.793 100.84 339.646 100.84V102.72H339.166C337.126 102.72 336.106 103.827 336.106 106.04V112H334.286V101.04H336.106V102.82ZM341.067 106.48C341.067 105.36 341.294 104.38 341.747 103.54C342.2 102.687 342.82 102.027 343.607 101.56C344.407 101.093 345.294 100.86 346.267 100.86C347.227 100.86 348.06 101.067 348.767 101.48C349.474 101.893 350 102.413 350.347 103.04V101.04H352.187V112H350.347V109.96C349.987 110.6 349.447 111.133 348.727 111.56C348.02 111.973 347.194 112.18 346.247 112.18C345.274 112.18 344.394 111.94 343.607 111.46C342.82 110.98 342.2 110.307 341.747 109.44C341.294 108.573 341.067 107.587 341.067 106.48ZM350.347 106.5C350.347 105.673 350.18 104.953 349.847 104.34C349.514 103.727 349.06 103.26 348.487 102.94C347.927 102.607 347.307 102.44 346.627 102.44C345.947 102.44 345.327 102.6 344.767 102.92C344.207 103.24 343.76 103.707 343.427 104.32C343.094 104.933 342.927 105.653 342.927 106.48C342.927 107.32 343.094 108.053 343.427 108.68C343.76 109.293 344.207 109.767 344.767 110.1C345.327 110.42 345.947 110.58 346.627 110.58C347.307 110.58 347.927 110.42 348.487 110.1C349.06 109.767 349.514 109.293 349.847 108.68C350.18 108.053 350.347 107.327 350.347 106.5ZM368.443 100.84C369.296 100.84 370.056 101.02 370.723 101.38C371.389 101.727 371.916 102.253 372.303 102.96C372.689 103.667 372.883 104.527 372.883 105.54V112H371.083V105.8C371.083 104.707 370.809 103.873 370.263 103.3C369.729 102.713 369.003 102.42 368.083 102.42C367.136 102.42 366.383 102.727 365.823 103.34C365.263 103.94 364.983 104.813 364.983 105.96V112H363.183V105.8C363.183 104.707 362.909 103.873 362.363 103.3C361.829 102.713 361.103 102.42 360.183 102.42C359.236 102.42 358.483 102.727 357.923 103.34C357.363 103.94 357.083 104.813 357.083 105.96V112H355.263V101.04H357.083V102.62C357.443 102.047 357.923 101.607 358.523 101.3C359.136 100.993 359.809 100.84 360.543 100.84C361.463 100.84 362.276 101.047 362.983 101.46C363.689 101.873 364.216 102.48 364.563 103.28C364.869 102.507 365.376 101.907 366.083 101.48C366.789 101.053 367.576 100.84 368.443 100.84Z" fill="black"/>
</svg>
