<svg width="130" height="46" viewBox="0 0 130 46" fill="none" xmlns="http://www.w3.org/2000/svg">
<path d="M10.464 26L6.624 19.328H4.536V26H1.8V9.32H7.56C8.84 9.32 9.92 9.544 10.8 9.992C11.696 10.44 12.36 11.04 12.792 11.792C13.24 12.544 13.464 13.384 13.464 14.312C13.464 15.4 13.144 16.392 12.504 17.288C11.88 18.168 10.912 18.768 9.6 19.088L13.728 26H10.464ZM4.536 17.144H7.56C8.584 17.144 9.352 16.888 9.864 16.376C10.392 15.864 10.656 15.176 10.656 14.312C10.656 13.448 10.4 12.776 9.888 12.296C9.376 11.8 8.6 11.552 7.56 11.552H4.536V17.144ZM29.0841 19.064C29.0841 19.56 29.0521 20.008 28.9881 20.408H18.8841C18.9641 21.464 19.3561 22.312 20.0601 22.952C20.7641 23.592 21.6281 23.912 22.6521 23.912C24.1241 23.912 25.1641 23.296 25.7721 22.064H28.7241C28.3241 23.28 27.5961 24.28 26.5401 25.064C25.5001 25.832 24.2041 26.216 22.6521 26.216C21.3881 26.216 20.2521 25.936 19.2441 25.376C18.2521 24.8 17.4681 24 16.8921 22.976C16.3321 21.936 16.0521 20.736 16.0521 19.376C16.0521 18.016 16.3241 16.824 16.8681 15.8C17.4281 14.76 18.2041 13.96 19.1961 13.4C20.2041 12.84 21.3561 12.56 22.6521 12.56C23.9001 12.56 25.0121 12.832 25.9881 13.376C26.9641 13.92 27.7241 14.688 28.2681 15.68C28.8121 16.656 29.0841 17.784 29.0841 19.064ZM26.2281 18.2C26.2121 17.192 25.8521 16.384 25.1481 15.776C24.4441 15.168 23.5721 14.864 22.5321 14.864C21.5881 14.864 20.7801 15.168 20.1081 15.776C19.4361 16.368 19.0361 17.176 18.9081 18.2H26.2281ZM30.8646 19.328C30.8646 18 31.1366 16.824 31.6806 15.8C32.2406 14.776 32.9926 13.984 33.9366 13.424C34.8966 12.848 35.9526 12.56 37.1046 12.56C38.1446 12.56 39.0486 12.768 39.8166 13.184C40.6006 13.584 41.2246 14.088 41.6886 14.696V12.776H44.4486V26H41.6886V24.032C41.2246 24.656 40.5926 25.176 39.7926 25.592C38.9926 26.008 38.0806 26.216 37.0566 26.216C35.9206 26.216 34.8806 25.928 33.9366 25.352C32.9926 24.76 32.2406 23.944 31.6806 22.904C31.1366 21.848 30.8646 20.656 30.8646 19.328ZM41.6886 19.376C41.6886 18.464 41.4966 17.672 41.1126 17C40.7446 16.328 40.2566 15.816 39.6486 15.464C39.0406 15.112 38.3846 14.936 37.6806 14.936C36.9766 14.936 36.3206 15.112 35.7126 15.464C35.1046 15.8 34.6086 16.304 34.2246 16.976C33.8566 17.632 33.6726 18.416 33.6726 19.328C33.6726 20.24 33.8566 21.04 34.2246 21.728C34.6086 22.416 35.1046 22.944 35.7126 23.312C36.3366 23.664 36.9926 23.84 37.6806 23.84C38.3846 23.84 39.0406 23.664 39.6486 23.312C40.2566 22.96 40.7446 22.448 41.1126 21.776C41.4966 21.088 41.6886 20.288 41.6886 19.376ZM47.1302 19.328C47.1302 18 47.4022 16.824 47.9462 15.8C48.5062 14.776 49.2582 13.984 50.2022 13.424C51.1622 12.848 52.2262 12.56 53.3942 12.56C54.2582 12.56 55.1062 12.752 55.9382 13.136C56.7862 13.504 57.4582 14 57.9542 14.624V8.24H60.7142V26H57.9542V24.008C57.5062 24.648 56.8822 25.176 56.0822 25.592C55.2982 26.008 54.3942 26.216 53.3702 26.216C52.2182 26.216 51.1622 25.928 50.2022 25.352C49.2582 24.76 48.5062 23.944 47.9462 22.904C47.4022 21.848 47.1302 20.656 47.1302 19.328ZM57.9542 19.376C57.9542 18.464 57.7622 17.672 57.3782 17C57.0102 16.328 56.5222 15.816 55.9142 15.464C55.3062 15.112 54.6502 14.936 53.9462 14.936C53.2422 14.936 52.5862 15.112 51.9782 15.464C51.3702 15.8 50.8742 16.304 50.4902 16.976C50.1222 17.632 49.9382 18.416 49.9382 19.328C49.9382 20.24 50.1222 21.04 50.4902 21.728C50.8742 22.416 51.3702 22.944 51.9782 23.312C52.6022 23.664 53.2582 23.84 53.9462 23.84C54.6502 23.84 55.3062 23.664 55.9142 23.312C56.5222 22.96 57.0102 22.448 57.3782 21.776C57.7622 21.088 57.9542 20.288 57.9542 19.376ZM88.1102 9.32V26H85.3742V14.576L80.2862 26H78.3902L73.2782 14.576V26H70.5422V9.32H73.4942L79.3502 22.4L85.1822 9.32H88.1102ZM97.4423 26.216C96.1943 26.216 95.0663 25.936 94.0583 25.376C93.0503 24.8 92.2583 24 91.6823 22.976C91.1063 21.936 90.8183 20.736 90.8183 19.376C90.8183 18.032 91.1143 16.84 91.7063 15.8C92.2983 14.76 93.1063 13.96 94.1303 13.4C95.1543 12.84 96.2983 12.56 97.5623 12.56C98.8263 12.56 99.9703 12.84 100.994 13.4C102.018 13.96 102.826 14.76 103.418 15.8C104.01 16.84 104.306 18.032 104.306 19.376C104.306 20.72 104.002 21.912 103.394 22.952C102.786 23.992 101.954 24.8 100.898 25.376C99.8583 25.936 98.7063 26.216 97.4423 26.216ZM97.4423 23.84C98.1463 23.84 98.8023 23.672 99.4103 23.336C100.034 23 100.538 22.496 100.922 21.824C101.306 21.152 101.498 20.336 101.498 19.376C101.498 18.416 101.314 17.608 100.946 16.952C100.578 16.28 100.09 15.776 99.4823 15.44C98.8743 15.104 98.2183 14.936 97.5143 14.936C96.8103 14.936 96.1543 15.104 95.5463 15.44C94.9543 15.776 94.4823 16.28 94.1303 16.952C93.7783 17.608 93.6023 18.416 93.6023 19.376C93.6023 20.8 93.9623 21.904 94.6823 22.688C95.4183 23.456 96.3383 23.84 97.4423 23.84ZM109.747 14.696C110.147 14.024 110.675 13.504 111.331 13.136C112.003 12.752 112.795 12.56 113.707 12.56V15.392H113.011C111.939 15.392 111.123 15.664 110.563 16.208C110.019 16.752 109.747 17.696 109.747 19.04V26H107.011V12.776H109.747V14.696ZM128.342 19.064C128.342 19.56 128.31 20.008 128.246 20.408H118.142C118.222 21.464 118.614 22.312 119.318 22.952C120.022 23.592 120.886 23.912 121.91 23.912C123.382 23.912 124.422 23.296 125.03 22.064H127.982C127.582 23.28 126.854 24.28 125.798 25.064C124.758 25.832 123.462 26.216 121.91 26.216C120.646 26.216 119.51 25.936 118.502 25.376C117.51 24.8 116.726 24 116.15 22.976C115.59 21.936 115.31 20.736 115.31 19.376C115.31 18.016 115.582 16.824 116.126 15.8C116.686 14.76 117.462 13.96 118.454 13.4C119.462 12.84 120.614 12.56 121.91 12.56C123.158 12.56 124.27 12.832 125.246 13.376C126.222 13.92 126.982 14.688 127.526 15.68C128.07 16.656 128.342 17.784 128.342 19.064ZM125.486 18.2C125.47 17.192 125.11 16.384 124.406 15.776C123.702 15.168 122.83 14.864 121.79 14.864C120.846 14.864 120.038 15.168 119.366 15.776C118.694 16.368 118.294 17.176 118.166 18.2H125.486Z" fill="black"/>
<line x1="11" y1="45" x2="126" y2="45" stroke="black" stroke-width="2"/>
</svg>
